<?xml version="1.0" encoding="UTF-8"?>
<svg id="Layer_1" data-name="Layer 1" xmlns="http://www.w3.org/2000/svg" viewBox="0 0 32 32">
  <defs>
    <style>
      .cls-1 {
        fill: #121211;
      }

      .cls-2 {
        fill: #141313;
      }

      .cls-3 {
        fill: #252625;
      }

      .cls-4 {
        fill: #0f0f0f;
      }

      .cls-5 {
        fill: #fff;
      }

      .cls-6 {
        fill: #090909;
      }

      .cls-7 {
        fill: #0c0c0c;
      }

      .cls-8 {
        fill: #242423;
      }

      .cls-9 {
        fill: #040404;
      }

      .cls-10 {
        fill: #0e0d0d;
      }

      .cls-11 {
        fill: #020202;
      }

      .cls-12 {
        fill: #0a0a0a;
      }

      .cls-13 {
        fill: #2a2a2a;
      }

      .cls-14 {
        fill: #030303;
      }

      .cls-15 {
        fill: #080808;
      }

      .cls-16 {
        fill: #141514;
      }

      .cls-17 {
        fill: #2f302f;
      }

      .cls-18 {
        fill: #292928;
      }

      .cls-19 {
        fill: #222322;
      }

      .cls-20 {
        fill: #252524;
      }

      .cls-21 {
        fill: #050505;
      }

      .cls-22 {
        fill: #292929;
      }

      .cls-23 {
        fill: #070707;
      }

      .cls-24 {
        fill: #292b2a;
      }

      .cls-25 {
        fill: #2c2d2c;
      }

      .cls-26 {
        fill: #010101;
      }

      .cls-27 {
        fill: #060606;
      }
    </style>
  </defs>
  <path d="m24.38,10.77h0c-.04-.22,0-.51-.13-.66-.47-.58-.97-1.14-1.5-1.67-.31-.31-.66-.59-1.04-.81-.54-.31-1.12-.56-1.68-.82-.03-.02-.11.06-.17.1-.07-.03-.14-.07-.22-.1-.25-.11-.5-.22-.75-.32-.89-.08-1.79-.16-2.68-.24-.1-.11-.19-.28-.31-.3-.24-.05-.52-.06-.55.31-.46.04-.93.08-1.39.12-.07.04-.15.07-.22.11-.32.04-.63.07-.95.11-.08.07-.16.14-.23.2-.07,0-.14,0-.21.01-.39.09-.85.07-1.16.28-.87.56-1.68,1.2-2.51,1.82-.89.68-1.35,1.66-1.8,2.64-.11.25-.09.56-.13.84-.16.67-.35,1.33-.45,2.01-.09.58-.07,1.17-.09,1.76,0,.39.01.79.02,1.18-.04.07-.07.13-.11.2-.13.24-.21.45.2.44.08.32.15.64.23.96-.2.51-.05.86.41.98,0,.07.01.14.02.21-.03.13-.12.28-.08.38.31.67.65,1.33,1,1.98.07.13.24.2.37.29.13.09.29.15.4.26.48.47.96.93,1.41,1.42.18.19.3.24.44-.01.15.07.29.13.44.2.14.15.26.34.42.43.39.23.8.42,1.22.6.06.03.19-.1.29-.16.32.07.64.14.96.22.04,0,.08,0,.11,0,.46.06.92.14,1.39.17.36.02.72-.04,1.09-.06.03.09.06.18.09.27.04-.06.09-.12.13-.18.64-.1,1.29-.2,1.93-.31.29.32.36.3.54-.22.18-.07.36-.15.54-.22.05.06.09.12.14.18.1-.13.19-.27.29-.4.36-.14.72-.29,1.07-.43.34.16.47-.02.54-.32h.05s.05,0,.05,0c.22-.09.48-.12.65-.27.49-.44.99-.9,1.4-1.41.27-.34.72-.65.54-1.22.04-.14.07-.28.11-.43.73-.12,1-.57.85-1.41.08-.36.15-.71.23-1.07.51-.11.56-.26.21-.65.03-.46.07-.92.1-1.39,0-.08,0-.15,0-.23-.03-.14-.06-.28-.1-.42l.2-.21c-.03-.07-.06-.15-.1-.22-.07-.54-.14-1.08-.22-1.61.24-.25.09-.62-.31-.75,0-.21-.02-.42-.02-.63.23-.55-.25-1.3-.96-1.51Z"/>
  <path class="cls-5" d="m13.84,25.71c-.32-.07-.64-.14-.96-.22-.64-.29-1.29-.58-1.93-.87-.15-.07-.29-.13-.44-.2-.77-.7-1.55-1.39-2.32-2.09-.07-.07-.11-.17-.16-.27-.35-.65-.71-1.3-1.06-1.95,0-.07-.01-.14-.02-.21-.14-.33-.27-.65-.41-.98-.08-.32-.15-.64-.23-.96-.07-.15-.14-.29-.2-.44.04-.07.07-.13.11-.2.14.11.29.21.43.32.16.03.32.06.47.09-.05.12-.1.25-.16.43.36-.13.63-.22,1.03-.36-.2.32-.32.51-.44.71.12.01.23.02.37.03-.08.34-.05.59.34.61h.01c.07.2.14.42.21.64-.02-.01-.03-.03-.05-.04l.04.05c-.15.45-.09.82.43.96.12.41-.31.91.19,1.27.21-.22.4-.43.58-.62-.06-.05-.14-.13-.23-.21,0-.02.01-.03.02-.05,0,.01-.02.03-.03.04-.18-.14-.36-.28-.54-.43.07-.04.14-.07.22-.11.02,0,.03.02.05.02-.02,0-.03-.02-.05-.02-.18-.16-.36-.33-.67-.62.34-.02.51-.03.69-.04.15-.12.33-.27.52-.42.07.11.14.21.21.32v.5c.05,0,.11,0,.16-.01.09-.15.19-.3.28-.45.04.02.08.03.12.05-.05.3-.1.61-.15.91.03.02.06.04.08.06.2-.21.39-.42.59-.62h0c.11.1.21.21.32.32,0,.04,0,.08,0,.11-.23.16-.46.33-.72.51-.06-.04-.19-.13-.39-.27.12.63.28.72.89.61,0,.04,0,.08,0,.11-.04.07-.07.14-.11.22,0,.07,0,.14,0,.21-.15-.06-.3-.12-.45-.18-.02.04-.03.08-.05.12l.5.28c-.06.13-.13.27-.24.5-.22-.31-.4-.55-.6-.83-.02.13-.05.29-.07.4-.13.05-.24.09-.35.12.1.24.19.47.25.61.51-.04.92-.08,1.35-.12-.11-.23-.23-.47-.34-.7.04,0,.07,0,.11.01.03.03.06.06.09.09.05,0,.09,0,.14,0,.03,0,.05,0,.08,0,.08.14.15.29.23.43,0,0,0,0,0,0,.06.21.35.43,0,.64-.04-.03-.08-.05-.12-.08,0,.01-.02.03-.03.04.05.01.1.03.14.04.1.07.19.13.17.12-.08.28-.14.5-.22.82.28-.21.43-.31.66-.48-.02.29-.02.43-.02.41.3.14.51.23.71.32.78.51,1.6.64,2.35.37-.07-.3-.14-.56-.2-.81,0-.07,0-.13,0-.2.04,0,.07,0,.11,0,.17-.04.35-.09.54-.14v-.62h.44c-.03.23-.06.44-.09.62h.69c.11-.34.21-.65.3-.95-.05-.02-.1-.04-.15-.06-.11.12-.22.25-.38.42-.1-.75-.03-.84.63-1.06.12-.25.19-.41.27-.58,0,.03,0,.07,0,.1.04.13.09.25.15.41.3-.19.56-.36.82-.53h0c.26,0,.52,0,.78.03.07,0,.13.12.19.19-.08,0-.16.01-.2.01.04.24.07.45.11.66.88.03.89.03.84-.64-.22.13-.42.26-.62.38-.04-.12-.08-.27-.13-.42.08-.14.17-.29.25-.43.06,0,.12,0,.18,0,.03.08.09.23.1.22.32-.08.66-.13.93-.29.11-.07.07-.39.1-.57.15.14.31.29.56.53.03-.27.1-.42.06-.55-.18-.58-.11-.82.45-.98.32-.09.26-.21.17-.41.14-.04.29-.07.43-.11h0c.14.11.29.22.43.33-.07.07-.14.13-.21.2-.04.03-.09.05-.13.08.04.01.09.02.13.04h0c.02.16.03.32.06.55-.28-.14-.43-.22-.7-.35.15.58.09.95-.45,1.08-.1.03-.2.17-.26.27-.06.09-.07.21-.1.32-.07.25.66.16.25.67q.53.18.84-.47c-.46-.44-.27-.44.54-.98-.24.03-.42.06-.56.07.35-.35.69-.7,1.1-1.11-.16.61-.1.69.42.63-.09-.14-.18-.27-.25-.4-.06-.13-.09-.27-.13-.41,0-.11,0-.22,0-.34,0-.06,0-.12-.01-.18.04,0,.09,0,.13-.01.13.06.25.12.34.16.03.23.05.42.08.68.14-.24.2-.48.34-.54.33-.15.22-.39.21-.62.04-.07.07-.14.11-.21.11-.13.23-.26.34-.39-.06-.04-.13-.07-.19-.11-.05.16-.11.33-.16.49-.04.07-.07.14-.11.22-.08.1-.15.19-.22.28-.08-.22-.15-.41-.22-.6.04,0,.08,0,.12,0,.09-.15.18-.31.32-.56.42.11,0-.44.19-.61-.09-.09-.17-.19-.25-.27-.15.14-.27.25-.38.36-.04-.18-.07-.36-.11-.53h0c.59.06.7-.31.73-.67-.35-.23-.64-.42-.94-.61.07-.11.14-.22.22-.32.07-.21.14-.43.22-.64.11,0,.21,0,.32,0,.03.04.07.07.1.11v.3c-.12.03-.23.05-.35.07,0,.04.01.08.02.12.22-.06.44-.12.66-.18.11-.03.22-.07.33-.1.14.18.28.36.42.54.03.14.06.28.1.42-.05.05-.11.09-.16.14.05.03.11.06.16.09-.03.46-.07.92-.1,1.39-.07.22-.14.43-.21.65-.08.36-.15.71-.23,1.07-.08.1-.18.19-.24.3-.21.36-.41.73-.61,1.1-.04.14-.07.28-.11.43-.73.81-1.45,1.62-2.18,2.43-.14.15-.27.31-.41.47h-.05s-.05,0-.05,0c-.18.11-.36.21-.54.32-.36.14-.72.29-1.07.43-.14.07-.29.14-.43.22-.18.07-.36.15-.54.22-.18.07-.36.15-.54.22-.64.1-1.29.2-1.93.31-.07-.03-.15-.06-.22-.09-.36.02-.73.08-1.09.06-.46-.02-.92-.11-1.39-.17-.04,0-.08,0-.11,0Zm7.53-2.15h.69c-.21-.28-.34-.47-.47-.66-.13-.19-.26-.4-.44-.67-.17.24-.29.4-.41.57.15.1.3.23.47.3.27.1.43.2.16.47-.05.03-.1.05-.15.08.02.02.04.04.07.06.03-.05.05-.1.08-.15Zm-2.57-.11s-.03-.09-.05-.14c-.01.01-.04.03-.04.03.02.04.05.08.07.12-.33.28-.65.56-1,.86.04.12.09.28.16.48.49-.13.95-.26,1.45-.39-.11-.29-.16-.43-.22-.58-.03-.07-.07-.14-.1-.2l.12-.06c-.13-.04-.26-.08-.38-.11Zm-1.02-.11s.12-.08.24-.17c-.02.18-.03.3-.05.48.19-.16.32-.28.46-.39-.7-.54.4-.7.15-1.22-.15.18-.25.37-.41.47-.2.13-.44.18-.56.22.05.19.11.4.16.6Zm-.67.96c.44.21.49.18.5-.35-.17.12-.33.23-.5.35Zm-.79.75c-.01.06-.03.11-.04.17.2.05.41.11.61.16.02-.06.03-.12.05-.18-.2-.05-.41-.1-.61-.15Zm.88-.07s-.02.06-.03.09c.2-.01.4-.02.6-.04,0-.05-.01-.11-.02-.16-.19.03-.37.07-.56.1Zm-1.67.35s-.02-.06-.02-.09c-.03.01-.07.02-.08.05-.01.02.01.05.02.08.03-.01.06-.02.09-.04Z"/>
  <path class="cls-5" d="m6.19,16.14c.03-.59,0-1.18.09-1.76.1-.68.3-1.34.45-2.01.06-.03.15-.05.17-.1.31-.63.55-1.29.92-1.88.27-.43.69-.77,1.05-1.14.04-.04.08-.07.12-.11h0s.04-.02.04-.02c0-.03-.02-.05-.03-.08.23-.18.46-.36.7-.53.38-.26.77-.52,1.15-.78.09-.06.16-.14.25-.18.26-.12.54-.23.8-.34h.05s.05,0,.05,0c-.2.22-.4.44-.67.74h1.16c0-.06,0-.12-.01-.17l-.48.09s-.03-.09-.05-.14c.15-.06.31-.11.45-.18.12-.06.24-.15.35-.22.04,0,.07,0,.11,0,.04,0,.07,0,.11,0,0,.03,0,.06,0,.1,0,.04,0,.08,0,.12,0,.14,0,.29,0,.43-.08.13-.17.26-.29.46.36-.09.62-.15.88-.21-.02.05-.05.1-.07.14.08.08.17.16.25.25-.11.11-.22.22-.33.33,0,0,0,0,0,0-.11.04-.22.07-.33.11-.07.04-.14.07-.21.11-.09-.12-.18-.24-.28-.37-.07.22-.15.44-.22.66-.03-.02-.06-.03-.09-.05-.13.24-.25.48-.38.72-.26-.21-.53-.41-.83-.65-.13.06-.41.15-.65.31-.48.31-.11.56.12.87-.23.08-.46.15-.68.22-.02-.02-.03-.03-.05-.05.01.02.03.03.04.05.12.08.34.24.35.23.26-.31.65-.09.94-.23.04.11.07.22.11.33,0,.06,0,.13,0,.19.04.08.07.16.11.23.12.43-.42.33-.51.66h.59c-.05.15-.08.25-.12.36.04-.02.07-.05.11-.07.05.08.09.15.14.23-.14.05-.29.1-.3.11.1.31.19.61.32,1.01.09-.16.14-.27.2-.37.04-.03.07-.06.11-.1.07.11.15.23.22.34.18-.02.38-.04.66-.07-.08.15-.11.2-.14.26-.19.33-.56.69-.51.98.07.36-.09.51-.23.74-.04.07-.08.15-.12.22-.07-.04-.14-.08-.21-.12-.7-.37-.24.42-.51.48-.08-.01-.17-.03-.26-.04-.02,0-.05,0-.07,0-.04.03-.08.06-.12.1-.11,0-.22,0-.33.01,0,0,0,0,0,0,0-.14,0-.28,0-.43.07,0,.14,0,.21,0,.05.05.09.11.14.16.01-.03.04-.08.03-.08-.05-.03-.11-.06-.16-.09.16-.11.32-.22.47-.32-.19-.18-.39-.35-.58-.53h0c.09-.14.19-.28.29-.42.28.39.39.37.57.04-.17-.2-.31-.38-.46-.53-.1-.1-.24-.17-.36-.26-.05.14-.09.27-.14.41h0c-.62.1-.66.18-.54.96.04.04.07.08.11.11h0c-.11.14-.22.28-.33.42-.06-.08-.12-.16-.18-.24-.19-.25-.37-.51-.57-.76-.02-.02-.17.07-.29.12-.01-.16-.02-.28-.03-.4,0-.07,0-.14,0-.21.04-.22.08-.44.12-.66-.06,0-.11-.02-.17-.03-.02.19-.05.38-.07.57l-.19.1c-.07-.16-.14-.31-.26-.57-.17.33-.29.56-.41.79-.11.07-.21.14-.32.22-.04-.43-.07-.86-.11-1.29.07-.08.13-.15.2-.23-.05-.02-.09-.03-.14-.05-.02.09-.04.19-.06.28-.51.43-.12.96-.22,1.48.14-.09.23-.14.32-.19.06.52.11.53.77.28-.04-.13-.09-.26-.13-.38.11-.1.22-.2.33-.3.07.06.13.12.2.19-.07.4-.14.8-.2,1.2.03.03.07.06.1.1.16.35.41.21.65.12.06.25.15.43.43.21.07.07.15.14.22.21.07.07.14.19.22.2.21.03.43.01.64.02.04.14.07.28.11.42-.04.08-.07.15-.11.23-.29.43-.57.11-.86,0-.04,0-.08,0-.12,0,0-.04,0-.07,0-.11.01,0,.04-.02.04-.03,0-.03-.02-.05-.03-.08-.08-.09-.15-.18-.2-.24-.17.09-.32.16-.46.23-.03-.03-.07-.06-.1-.09-.25-.15-.5-.29-.75-.44.05-.1.11-.2.17-.29-.05-.02-.1-.03-.15-.05,0,.11-.02.22-.03.33-.11.11-.22.22-.33.33-.06.04-.13.07-.19.11-.07-.11-.15-.22-.22-.33,0-.07,0-.14,0-.21.44.02.29-.31.32-.54.01-.15.03-.29.04-.44-.06,0-.12,0-.18,0-.03.18-.05.37-.08.55-.14-.07-.28-.14-.43-.22-.02-.01-.03-.03-.05-.04.01.02.03.03.04.05-.08.08-.16.18-.25.25-.09.07-.19.12-.29.18-.04,0-.08,0-.12,0Zm5.07-2.91s-.1.03-.15.04c0,.01.02.03.03.04.04-.03.08-.06.12-.09.01,0,.03,0,.04-.01,0,0,0-.02,0-.03-.02.01-.03.03-.05.04Zm-.54.22c.08.03.15.06.23.09,0-.03.01-.05.02-.08-.08,0-.16-.01-.24-.02-.05-.05-.09-.11-.14-.16-.01.01-.02.02-.04.04.06.04.11.09.17.13Zm-1.72-2.04s.03.1.04.15c.01,0,.03-.02.04-.03-.03-.04-.05-.08-.08-.12.08-.1.15-.19.3-.37-.21.08-.31.12-.41.16-.06-.14-.12-.28-.17-.42-.04.01-.07.03-.11.04.02.12.04.25.06.37-.14.08-.28.17-.42.25.14.14.27.28.41.41.04-.03.07-.07.11-.1-.03-.19-.06-.37-.09-.56.07,0,.14,0,.21,0,.04.07.07.14.11.22Zm-.64,1.08c-.1-.13-.18-.31-.31-.39-.08-.05-.25.06-.38.1.05.09.1.18.15.27v.21c-.03.29-.07.58-.11.87-.05.01-.1.03-.15.04,0,.01.02.03.03.04.04-.03.08-.06.12-.08.08.01.17.03.12.02.18-.19.28-.29.36-.4.02-.03-.03-.11-.05-.16.07-.18.14-.35.21-.53Zm1.5.53c.43.19.26-.32.47-.4.38-.14.4-.39.21-.72-.19-.34-.36-.34-.58-.04-.02.03-.16-.03-.35-.06.14.34.26.59.33.85.03.11-.05.25-.08.38-.19.11-.37.22-.68.4.24.09.44.17.44.16.09-.18.16-.37.23-.56Zm.25-3.65c-.52-.19-.6.21-.75.5-.03.06.08.26.14.27.66.12.29-.59.6-.77Zm1.63-.5v-.21c-.3-.02-.61-.05-.99-.08.28.57.62.49.99.29Zm.48.51v-.1c-.14-.03-.3-.05-.45-.08,0,.05-.01.09-.02.14.16.01.31.03.47.04Zm-3.59.34s0,.09,0,.13c.11,0,.21,0,.32.01,0-.04,0-.08,0-.13-.11,0-.21-.01-.32-.02Zm.06,3.51s.07.04.1.06l.14-.32s-.05-.03-.08-.04l-.16.3Zm.37-.62s.08-.09.08-.1c-.02-.04-.07-.08-.11-.09-.02,0-.06.05-.09.08.03.03.07.06.12.11Zm.91-1.3s-.07-.04-.1-.06c-.03.06-.06.12-.09.18.02.01.04.03.07.04.04-.05.08-.11.13-.16Zm-1.26,5.23s.04-.07.03-.09c0-.02-.05-.03-.08-.04-.01.03-.04.07-.03.09,0,.02.05.03.09.04Zm.54-2.62s.03,0,.05,0v-.17s-.03,0-.05,0v.17Zm-.21-3.42c.03-.05.07-.08.06-.1,0-.02-.05-.04-.08-.06,0,.05.01.09.02.16Zm-2.36,4.63s-.01-.03-.02-.03c-.01,0-.03,0-.04,0,0,.02.02.04.03.05.01,0,.02-.02.03-.02Zm2.65-4.87s-.02.02-.03.02c.02,0,.04.02.06.03,0-.01.01-.03,0-.03,0,0-.02-.01-.04-.02Z"/>
  <path class="cls-5" d="m12.01,7.21h-.05s-.05,0-.05,0c.07-.07.14-.15.21-.22.04-.03.07-.07.11-.1.04-.03.07-.07.11-.1.07,0,.14,0,.21-.01.08-.07.16-.14.23-.2.32-.04.63-.07.95-.11.07-.04.15-.07.22-.11.46-.04.93-.08,1.39-.12.29,0,.57,0,.86,0,.89.08,1.79.16,2.68.23.25.11.5.22.75.32.07.03.14.07.22.1.26.17.52.34.79.5,1.2.71,2.44,1.36,3.12,2.67.14.26.4.47.6.7,0,0,0,0,0,0,.32.5.64,1.01.96,1.51,0,.21.02.42.02.63.1.25.21.5.31.75.07.54.14,1.08.22,1.61.03.07.06.15.1.22-.07.07-.13.14-.2.21-.14-.18-.28-.36-.42-.54-.28-.36-.55-.73-.83-1.09l-.1.03c.06.25.12.49.17.74-.11,0-.21,0-.32,0q-.2-.13-.35.14t-.41.07c.02-.13.04-.26.06-.39-.06,0-.12.01-.18.02l.12.37-.21.32c-.07,0-.15,0-.22,0-.05-.3-.2-.36-.49-.25-.17.07-.39.03-.58.04-.09-.05-.18-.1-.25-.14.05-.11.09-.2.13-.29.16.09.32.18.45.25.59-.1.82-.81,1.46-.81,0,0,.02-.13.02-.2-.04-.04-.07-.07-.11-.11l-.32-.75c.13-.03.42.11.26-.24.09-.03.18-.06.27-.08,0,.01,0,.03.02.04,0,0,.02,0,.03,0-.02-.02-.03-.03-.05-.05.02-.17.05-.34.07-.5-.24.2-.48.4-.72.6-.28-.04-.26-.23-.32-.45-.08-.3-.35-.55-.53-.83.03,0,.07,0,.1,0,.17-.05.33-.1.49-.15-.17-1-.17-1-.77-1.27-.25-.11-.52-.2-.77-.31-.21-.09-.4-.2-.62-.32.1-.08.17-.14.22-.18-.17-.16-.32-.31-.48-.46.05-.01.1-.03.14-.04,0-.01-.02-.03-.03-.04-.04.03-.08.05-.12.08-.07.11-.14.21-.21.32-.03,0-.07,0-.1,0-.04,0-.08,0-.12,0-.03.14-.06.29-.1.43-.08.07-.15.15-.23.22-.18-.11-.35-.22-.53-.33-.11-.07-.22-.14-.32-.2.07-.07.14-.15.21-.22.05-.05.1-.09.16-.14-.02-.02-.05-.03-.07-.05-.03.06-.06.13-.09.19-.08.07-.15.14-.23.2-.57-.09-1.14-.19-1.66-.28,0-.84-.82-.74-1.13-1.19-.11.13-.18.22-.25.32-.08.09-.15.19-.26.32.09.07.16.11.21.18.06.08.11.17.09.15h1.17c-.17.21-.29.36-.42.52-.2-.43-.26-.02-.29.07-.14.38-.29.29-.47.04.06-.04.11-.09.17-.13-.01-.01-.02-.02-.04-.04-.04.06-.09.11-.13.17-.22-.14-.43-.29-.65-.43h0c.05-.2.1-.4.13-.55-.15-.1-.27-.17-.39-.24-.12-.07-.26-.19-.36-.16-.1.03-.17.2-.25.31,0,0,0,0,0,0-.04.07-.09.15-.13.22,0,0-.05,0-.05,0-.16,0-.32,0-.48,0,.13-.15.26-.3.33-.39-.18-.37-.35-.71-.53-1.07-.21.19-.32.29-.43.39h0c-.07-.05-.14-.08-.21-.12,0-.03,0-.06,0-.1-.04,0-.07,0-.11,0-.04,0-.07,0-.11,0-.2-.36-.5-.07-.75-.11Zm6.99.32s-.03-.02-.05-.03c.02,0,.03.02.05.02l-.24.29.14.06c.03-.11.06-.23.09-.34Zm.1.43c-.18.07-.35.14-.53.22-.08-.06-.16-.13-.24-.19-.02.05-.03.09-.05.14.09.02.19.04.28.06.39.45.45.08.55-.21.01-.02.03-.03.04-.05-.02.01-.03.03-.05.04Zm-1.18.65c.02.12.03.24.05.36.05-.02.1-.04.15-.06-.06-.1-.13-.2-.19-.3.01-.1.03-.19.03-.22-.28-.07-.5-.13-.72-.18l-.05.12c.25.09.49.19.74.28Zm1.51-.44s-.04-.09-.05-.14c-.01.01-.04.03-.04.03.02.04.05.08.08.12-.05.11-.1.23-.15.34.18.03.33.05.52.08.02-.19.03-.37.05-.59-.19.08-.3.12-.4.16Zm-4.53-.75h0c.19.06.37.12.62.2.03.04.13.18.25.34.06-.3.1-.51.15-.79.36.64,1.13.81,1.68.45.25.06.5.13.75.19-.06-.06-.13-.13-.19-.19.21-.16.43-.32.61-.46h-.48c-.16-.15-.31-.28-.55-.5v.54c-.18-.09-.33-.16-.47-.23-.16-.09-.37-.14-.49-.27-.27-.3-.53-.26-.81-.04h0c-.12-.02-.33-.07-.33-.06-.06.21-.1.43-.16.71-.16-.13-.35-.28-.54-.42-.13.18-.25.35-.41.58.19-.03.28-.04.36-.05Zm10.07,6.57c.02-.06.05-.11.07-.17-.12-.04-.25-.09-.37-.12,0,0-.03.06-.05.1.12.06.24.13.35.19Zm-7.01-5.97s-.04-.09-.07-.14c-.08.06-.17.13-.25.19.02.03.04.05.06.08.09-.05.17-.09.26-.14Zm7.29,6.35s0-.03,0-.04h-.17s0,.03,0,.04h.17Z"/>
  <path class="cls-26" d="m12.34,6.79s-.07.07-.11.1c-.04.03-.07.07-.11.1-.07.07-.14.15-.21.22-.27.11-.54.22-.8.34-.09.04-.16.13-.25.18-.38.26-.77.51-1.15.78-.24.17-.46.35-.7.53,0,.03-.01.07,0,.1,0,0,0,0,0,0-.04.04-.08.07-.12.11-.35.38-.78.71-1.05,1.14-.37.59-.61,1.25-.92,1.88-.02.05-.12.07-.17.1.04-.28.02-.59.13-.84.45-.98.9-1.97,1.8-2.64.82-.62,1.64-1.26,2.51-1.82.32-.2.77-.19,1.16-.28Z"/>
  <path class="cls-26" d="m24.38,10.77c-.2-.23-.46-.43-.6-.7-.69-1.32-1.93-1.96-3.12-2.67-.27-.16-.53-.33-.79-.5.06-.03.14-.11.17-.1.57.26,1.14.51,1.68.82.38.22.73.5,1.04.81.53.53,1.03,1.09,1.5,1.67.12.15.09.44.13.66Z"/>
  <path class="cls-26" d="m6.97,20.11c.35.65.7,1.3,1.06,1.95.05.09.09.2.16.27.77.7,1.54,1.4,2.32,2.09-.14.26-.26.21-.44.01-.45-.49-.93-.96-1.41-1.42-.11-.11-.27-.17-.4-.26-.13-.09-.31-.16-.37-.29-.35-.65-.68-1.31-1-1.98-.04-.09.05-.25.08-.38Z"/>
  <path class="cls-26" d="m21.79,24.2c.14-.16.27-.32.41-.47.73-.81,1.45-1.62,2.18-2.43.18.56-.27.88-.54,1.22-.41.51-.91.97-1.4,1.41-.16.15-.43.18-.65.27Z"/>
  <path class="cls-26" d="m25.33,12.28c-.32-.5-.64-1.01-.96-1.51.71.22,1.18.96.96,1.51Z"/>
  <path class="cls-26" d="m10.94,24.62c.64.29,1.29.58,1.93.87-.1.06-.23.18-.29.16-.42-.18-.83-.37-1.22-.6-.17-.1-.28-.29-.42-.43Z"/>
  <path class="cls-26" d="m24.49,20.87c.2-.37.4-.74.61-1.1.06-.11.16-.2.24-.3.15.84-.12,1.28-.85,1.41Z"/>
  <path class="cls-5" d="m6.19,16.14s.08,0,.12,0c.13.09.25.17.39.26-.05.08-.11.18-.17.28.04.15.08.29.12.44,0,.18,0,.35,0,.53-.14-.11-.29-.21-.43-.32,0-.39-.01-.79-.02-1.18Z"/>
  <path class="cls-26" d="m6.54,18.93c.14.33.27.65.41.98-.46-.11-.61-.46-.41-.98Z"/>
  <path class="cls-26" d="m16.21,6.24c-.29,0-.57,0-.86,0,.04-.37.32-.35.55-.31.12.02.21.2.31.3Z"/>
  <path class="cls-26" d="m25.67,13.66c-.1-.25-.21-.5-.31-.75.4.13.56.51.31.75Z"/>
  <path class="cls-26" d="m25.57,18.4c.07-.22.14-.43.21-.65.35.39.3.54-.21.65Z"/>
  <path class="cls-26" d="m19.64,6.8c-.25-.11-.5-.22-.75-.32.25.11.5.22.75.32Z"/>
  <path class="cls-26" d="m18.57,25.6c.18-.07.36-.15.54-.22-.18.52-.24.54-.54.22Z"/>
  <path class="cls-26" d="m21.15,24.52c.18-.11.36-.21.54-.32-.07.3-.21.48-.54.32Z"/>
  <path class="cls-26" d="m19.65,25.16c.14-.07.29-.14.43-.22-.1.13-.19.27-.29.4-.05-.06-.09-.12-.14-.18Z"/>
  <path class="cls-26" d="m6.1,17.53c.07.15.14.29.2.44-.41.01-.33-.2-.2-.44Z"/>
  <path class="cls-26" d="m16.42,25.82c.07.03.15.06.22.09-.04.06-.09.12-.13.18l-.09-.27Z"/>
  <path class="cls-26" d="m25.87,16.36c-.05-.03-.11-.06-.16-.09.05-.05.11-.09.16-.14,0,.08,0,.15,0,.23Z"/>
  <path class="cls-26" d="m13.95,6.36c-.07.04-.15.07-.22.11.07-.04.15-.07.22-.11Z"/>
  <path class="cls-26" d="m12.78,6.58c-.08.07-.16.14-.23.2.08-.07.16-.14.23-.2Z"/>
  <path class="cls-26" d="m25.98,15.5c-.03-.07-.06-.15-.1-.22.03.07.06.15.1.22Z"/>
  <path class="cls-26" d="m13.84,25.71s.08,0,.11,0c-.04,0-.08,0-.11,0Z"/>
  <path class="cls-5" d="m9.42,17.21s.08,0,.12,0c.06.66.35.74.96.33.14-.1.28-.21.41-.31.05.06.09.13.14.19,0,.03,0,.07,0,.1.12.03.25.04.35.11.4.27,1.26.25,1.7-.11.08.24.14.45.21.65,0,.08,0,.16,0,.23.16.15.32.3.47.44.05-.08.11-.17.16-.25.04,0,.07.01.11.02.43.18.86.36,1.29.54h0c0,.07,0,.14,0,.21-.06.03-.13.05-.19.09-.08.05-.15.12-.22.18.04.05.1.14.12.13.09-.03.2-.07.25-.15.05-.06.03-.17.04-.25.04-.07.08-.14.11-.21.07,0,.14,0,.21,0,.05.14.09.27.14.41.05-.02.13-.05.13-.06-.04-.12-.09-.24-.14-.35-.01-.03-.02-.07-.03-.1.04-.04.08-.08.12-.12.32-.07.69-.26.97-.18.66.21,1.1-.32,1.49-.55.6-.35,1.06-1.04,1.07-1.89,0-.16.28-.32.44-.48.08.1.16.2.24.3.03-.07.06-.14.1-.21h.11c.07,0,.14,0,.22,0,.07-.07.14-.14.21-.21.04.07.08.15.12.22-.14.36-.27.72-.41,1.07-.03-.03-.11-.14-.22-.26-.17.63.97.84.4,1.56.14-.09.29-.2.28-.29-.04-.35.2-.24.37-.26,0,0,0,0,0,0-.07.29-.14.58-.21.86-.29,0-.79-.45-.76.32h0c-.17.28-.35.56-.57.94.48.11.85.2,1.24.29,0,.02-.05.22-.1.22-.44.04-.23.45-.37.62-.18.22-.48.35-.73.51-.06,0-.12,0-.18,0-.29-.1-.58-.2-.74-.25.03-.19.06-.4.08-.6-.04,0-.08-.02-.13-.03-.15.37-.29.73-.44,1.1,0,0,0,0,0,0-.32.04-.65.07-.97.11,0-.03,0-.07,0-.1.06-.11.12-.21.18-.32-.03-.02-.06-.04-.1-.06-.06.08-.12.16-.19.24-.59-.83-1.01-.58-1.36.03.18-.07.31-.12.44-.17.03.03.06.07.1.1-.12.12-.24.25-.36.37.04.04.07.07.11.11.07.07.14.15.22.22-.28.07-.48.03-.69.04-.19,0-.38.06-.58.09-.02.04-.04.09-.06.13.19.1.38.2.57.3-.22.1-.43.2-.65.31,0-.14.05-.37,0-.4-.15-.07-.34-.06-.52-.08.06-.16.13-.34.18-.44-.29-.11-.51-.19-.73-.27,0,0,0,0,0,0,.25-.09.5-.18.77-.28,0,.02,0-.06-.02-.15l-.1-.41c-.01-.11-.04-.21-.03-.32,0-.23.03-.45.04-.68.01-.01.04-.03.04-.03-.01-.03-.03-.05-.04-.07-.01-.01-.02-.03-.04-.03-.01,0-.04,0-.05,0-.08.19-.16.38-.24.57-.11,0-.23,0-.34,0-.03.03-.06.07-.09.1h0c-.08,0-.15,0-.23,0-.11,0-.22,0-.33-.01v.63c-.07.03-.19.07-.3.12h-.65c-.17.01-.35.01-.52.02-.08.01-.16.02-.24.04.04.02.08.04.12.06.14.14.28.29.43.43-.09.03-.18.06-.27.09.06.04.12.09.18.13l.2.21s0,.06,0,.09c-.07.04-.14.08-.22.13l-.1.1c-.11.07-.22.14-.33.22,0,0,0,0,0,0,0-.25,0-.5,0-.9-.12.25-.18.36-.23.46-.03,0-.05,0-.08,0h-.01s-.07-.01-.11-.01h-.02s-.06-.05-.09-.08c-.04-.08-.07-.16-.11-.23,0-.07,0-.14,0-.21.14-.03.28-.05.42-.08,0-.05,0-.09,0-.14h-.31s0-.08,0-.11c.14-.18.03-.58.44-.53.08,0,.15-.02.23-.03,0-.02,0-.04,0-.06-.08,0-.16-.02-.23-.02-.07-.07-.15-.14-.22-.21,0-.04,0-.08,0-.11-.11-.11-.21-.21-.32-.32,0,0,0,0,0,0,.09-.33.03-.57-.37-.55-.24.01-.47.08-.71.12-.07-.11-.14-.21-.21-.32-.18-.26-.36-.51-.55-.77-.17-.23-.64-.09-.64-.53.04-.02.09-.05.13-.07-.04-.01-.08-.03-.13-.04-.29-.18-.58-.36-.87-.53.04-.07.08-.14.12-.21.28,0,.48-.6.81-.12.05-.13.11-.27.16-.41.03.03.07.06.1.09.07.17.13.35.2.52-.11.01-.22.03-.33.04,0,.04,0,.07,0,.11l.35-.03c.07,0,.13,0,.2,0,.45.04.09-.31.21-.43Zm7.21,3.23c.07-.07.14-.14.21-.22.14-.15.27-.3.42-.46.18.21.29.35.5.6-.03-.41-.04-.65-.05-.88.74.01.96.17.86.63.05.01.1.02.15.03.04-.19.09-.39.1-.44.18-.19.29-.3.4-.41-.35-.03-.6.03-.86.09-.22.04-.44.07-.65.11-.32.07-.63.14-.94.21.04.24.06.39.08.54-.07.07-.14.14-.22.21-.01,0-.03,0-.04.02,0,0,0,.02,0,.03.01-.02.03-.03.04-.05Zm-6.72-2.16c-.09.02-.14.01-.15.03-.02.04-.03.1-.04.14.05-.05.1-.09.13-.16l.05-.03-.02-.02s-.02.05.04.03Zm1.98.23c.12-.08.23-.16.35-.24-.04-.03-.07-.07-.11-.1-.08.12-.16.23-.24.35-.02.02-.03.03-.05.05,0,0,.02,0,.03,0,0-.01.01-.03.02-.04Zm3.23,1.72l-.02-.04-.02.02.04.02c0,.07,0,.15,0,.22,0,.1-.06.24-.02.29.24.3-.02.29-.19.34-.02-.01-.04-.03-.05-.04.02.02.03.03.05.05.12.1.24.09.74-.11-.1-.08-.19-.14-.2-.15.08-.21.14-.37.2-.52-.13-.02-.26-.05-.39-.07-.04,0-.08,0-.12,0Zm-3.01.85s-.02.06-.04.09c.05-.03.1-.06.15-.09l.09-.09c.24-.19.48-.37.71-.56-.05-.1-.11-.2-.17-.31,0,0,0,0,0,0,.07-.21.15-.43.22-.64.1,0,.21,0,.31,0,.04.11.08.21.12.32.03.07.07.14.1.21.07-.11.14-.23.21-.34-.02-.2-.05-.39-.09-.73-.08.2-.1.26-.12.32-.1,0-.21,0-.31,0-.01-.09-.02-.18-.03-.27-.06.05-.12.11-.19.16-.07,0-.15,0-.22,0-.32-.42-.54-.21-.75.11-.51.06-.7.31-.64.92.13-.12.23-.2.32-.28.15.13.3.26.54.47-.25.04-.35.05-.44.06-.18-.08-.36-.16-.54-.24-.02.06-.03.12-.05.18.14.01.27.02.37.03.05.19.08.33.12.47.11,0,.22,0,.32-.01,0,.07,0,.14,0,.22Zm-1.93-2.25l-.13-.17s-.02.02-.04.04c.06.04.11.09.17.13.02.08,0,.2.05.24.17.14.36.25.55.37,0,0,.02-.09.04-.19.03,0,.07,0,.1,0,.05-.05.15-.11.15-.14-.15-.53-.53-.37-.89-.29Zm9.45,1.37c-.05.43.1.58.75.44-.27-.16-.54-.31-.75-.44Zm-1.08.42s.03-.07.05-.1c-.1-.14-.2-.28-.31-.43-.07.13-.13.23-.19.35.16.07.31.13.45.19Zm1.39-3.01s.09-.05.14-.07c-.05-.1-.09-.2-.14-.3l-.17.08c.06.1.11.19.17.29Zm-2.8,2.95c.03.06.07.11.1.17.09-.06.19-.13.28-.2,0,0-.07-.12-.08-.12-.1.04-.2.09-.3.15Zm-1.11-.79c-.06.08-.13.14-.13.19,0,.05.07.1.11.15.05-.05.12-.1.15-.16.01-.03-.07-.09-.14-.17Zm-1.8-.4s.09-.09.13-.14l-.28-.2s-.03.05-.05.07c.07.09.14.18.2.27Zm.05.52c.04-.06.09-.12.07-.14-.02-.05-.08-.07-.12-.11-.02.04-.05.09-.05.13,0,.04.05.07.09.12Zm-1.47,1.22l.09.11c.06-.07.12-.14.18-.21-.02-.02-.05-.05-.07-.07l-.2.17Zm7.26-2.39s-.05-.02-.07-.03c-.03.07-.05.13-.08.2l.08.03c.03-.07.05-.13.08-.2Zm-10.57-.06v.05h.16v-.05h-.16Zm9.53,1.62s-.03,0-.04-.01c0,.02,0,.04,0,.06.01,0,.03,0,.04-.01,0,0,0-.02,0-.03Zm-4.19-.94s0-.03,0-.04c-.01,0-.03,0-.04-.01,0,.02,0,.04.01.06.01,0,.03-.01.04-.02Zm-.81.02s-.02-.02-.03-.04c-.01.01-.03.03-.03.03.01.02.03.03.04.05v-.04Zm3.21.73s-.03,0-.04,0c0,.01,0,.03,0,.04.02,0,.04,0,.06-.01,0-.01-.01-.03-.02-.04Zm-4.32-1.3s0,.05,0,.08c.01-.01.03-.02.03-.04,0-.01-.01-.03-.02-.04Zm3.75,2.01s.03-.01.03-.02c0-.01,0-.03,0-.04-.02,0-.04.02-.05.03,0,.01.02.02.02.04Zm-4.64-1.8s0-.03,0-.04c-.01,0-.03,0-.05-.01,0,.02,0,.04.01.07.01,0,.03-.01.04-.02Z"/>
  <path class="cls-5" d="m23.09,15.39c.07,0,.15,0,.22,0,.07.04.14.08.21.12.04.03.07.06.11.09.07.07.14.15.21.22.29.19.58.38.94.61-.02.36-.14.73-.73.67-.28-.24-.56-.47-.84-.72-.06.13-.14.32-.22.51.07,0,.14,0,.21,0,.12.2.08.27-.16.36-.26.09-.2.24.06.29.03.11.07.22.1.33.02.13.04.26.05.39-.04.02-.07.04-.11.06-.3-.41-.6-.83-.89-1.24.01.37-.68.61-.19,1.04.11-.12.2-.22.35-.4.02.19.03.28.04.36-.02.01-.03.03-.05.04,0,0,.02,0,.03,0,0-.01.01-.03.02-.04.31.21.63.41.94.61.19-.14.35-.25.46-.32-.03-.26-.06-.49-.09-.72.3-.09.25-.25.09-.44l.22-.11c.04.18.07.36.11.53.04.11.1.22.11.33.02.25,0,.5.01.75-.04,0-.08,0-.12,0-.18.21-.35.43-.53.64-.04,0-.09,0-.13.01-.54.19-.44-.32-.57-.57-.14.2-.26.37-.39.55,0,0,0,0,0,0-.14-.03-.28-.07-.42-.1-.07.07-.15.13-.22.2-.12-.1-.23-.2-.43-.37-.26.22-.5.44-.75.65.09-.02.18-.04.27-.05-.15-.17-.3-.34-.45-.51l-.09.15c-.05-.13-.11-.27-.16-.4,0,0,0,0,0,0,.2-.05.4-.09.59-.14.07.13.13.26.2.39.03,0,.07-.02.1-.02-.01-.18-.03-.37-.04-.55.15-.17.29-.34.47-.56-.13-.11-.24-.21-.36-.31,0,0,0,0,0,0,.14-.1.29-.2.46-.31-.15-.08-.3-.16-.45-.23-.08-.14-.15-.28-.23-.42.11-.25.22-.5.33-.75.04,0,.07,0,.11,0,.03,0,.07,0,.1,0h0c.04.1.07.21.11.32.04,0,.07,0,.11,0,.11-.07.22-.14.33-.21.11-.1.21-.21.32-.31.22-.14.64,0,.65-.44Zm-1.04,2.9s-.09.07-.09.11c0,.03.07.09.09.09.05-.02.09-.07.13-.11-.04-.03-.08-.05-.13-.09Zm1.15-2.43s-.07.03-.07.05c0,.02.02.05.03.08.03-.02.07-.04.1-.06-.02-.02-.04-.04-.06-.07Zm-.72,1.07s.07.04.09.03c.02,0,.03-.06.04-.09-.03-.01-.07-.04-.09-.03-.02,0-.03.06-.04.09Zm-.24-.43s-.03,0-.05.02c0,0,0,.03.01.04.02,0,.03,0,.05-.02,0,0,0-.03-.01-.04Z"/>
  <path class="cls-12" d="m8.68,16.9c-.05.14-.11.28-.16.41-.33-.48-.53.12-.81.12-.14.06-.28.12-.41.17.1.01.2.02.3.03.29.18.58.36.87.53,0,.04,0,.07,0,.11,0,.44.47.3.64.53.19.25.37.51.55.77-.18.15-.37.3-.52.42-.18.01-.36.02-.69.04.31.29.49.45.67.62h0c-.07.03-.14.07-.22.11,0,0,0,0,0,0-.53-.15-.58-.51-.43-.96h0c-.07-.22-.14-.44-.21-.66-.02-.01-.03-.03-.05-.04.01.02.03.04.04.05-.39-.02-.42-.27-.34-.61-.14-.01-.25-.02-.37-.03.12-.19.24-.38.44-.71-.4.14-.67.24-1.03.36.07-.18.12-.31.16-.43-.15-.03-.31-.06-.47-.09,0-.18,0-.35,0-.53.12.01.25,0,.36.05.45.2.54.14.59-.38.11-.11.22-.22.33-.33h.01c.25.16.5.3.75.45Z"/>
  <path class="cls-6" d="m20.3,18.93c.05.13.11.27.16.4l.09-.15c.15.17.3.34.45.51-.09.02-.18.04-.27.05.25-.21.49-.43.75-.65.2.17.32.27.43.37.07,0,.14,0,.22.01h0c.09.19.15.32-.17.41-.56.15-.63.4-.45.98.04.12-.03.28-.06.55-.26-.24-.41-.39-.56-.53-.03.18.01.5-.1.57-.27.16-.61.21-.93.29-.01,0-.06-.15-.1-.22.25-.17.55-.29.73-.51.14-.17-.07-.58.37-.62.05,0,.09-.2.1-.22-.39-.09-.75-.17-1.24-.29.23-.38.4-.66.57-.94Z"/>
  <path class="cls-21" d="m15.67,22.82c-.19-.1-.38-.2-.57-.3.02-.04.04-.09.06-.13.19-.03.38-.08.58-.09.2,0,.41.04.69-.04-.07-.07-.14-.15-.22-.22-.04-.04-.07-.07-.11-.11.12-.12.24-.25.36-.37-.03-.03-.06-.07-.1-.1-.13.05-.26.1-.44.17.35-.61.78-.86,1.36-.03.07-.09.13-.16.19-.24.03.02.06.04.1.06-.06.11-.12.21-.18.32-.08.17-.16.33-.27.58-.66.22-.73.31-.63,1.06.15-.17.27-.3.38-.42.05.02.1.04.15.06-.1.31-.19.61-.3.95h-.69c.03-.18.06-.4.09-.62h-.44s0,0,0,0c.19-.12.38-.24.56-.37-.25-.38-.35-.42-.56-.16Z"/>
  <path class="cls-23" d="m23.52,19.9c.04.14.07.28.13.41.07.14.16.26.25.4-.52.05-.58-.02-.42-.63-.41.41-.75.75-1.1,1.11.14-.02.32-.04.56-.07-.8.54-1,.54-.54.98q-.31.65-.84.47c.41-.51-.32-.42-.25-.67.03-.11.04-.23.1-.32.07-.11.16-.25.26-.27.54-.13.6-.5.45-1.08.26.13.42.21.7.35-.02-.23-.04-.4-.06-.56.25-.04.5-.07.75-.11Z"/>
  <path class="cls-1" d="m15.02,24.3c.06.25.12.51.2.81-.75.27-1.57.14-2.35-.37.08-.04.15-.08.23-.12.17-.03.35-.06.52-.1.11-.03.22-.07.33-.1.36-.04.72-.08,1.08-.12Z"/>
  <path class="cls-6" d="m13.1,24.62c-.08.04-.15.08-.23.12-.21-.09-.41-.19-.71-.32,0,.02,0-.11.02-.41-.23.17-.38.28-.66.48.09-.32.15-.54.22-.82.02.01-.07-.05-.17-.12,0,0,0,0,0,0,.35-.22.06-.43,0-.64.11-.07.22-.14.33-.22.04.05.09.11.13.16.03-.09.06-.18.08-.27.04,0,.07,0,.11,0,.04,0,.07,0,.11,0h0c.11.17.22.34.39.61,0,.02-.07.18-.14.34-.18-.06-.32-.1-.52-.16-.15.5.25.65.48.88.15.15.36.24.55.36Z"/>
  <path class="cls-10" d="m18.79,23.44c.13.04.26.08.38.12l-.12.06c.03.07.07.13.1.2.06.14.11.29.22.58-.5.14-.96.26-1.45.39-.06-.19-.12-.36-.16-.48.35-.3.68-.58,1-.86h.01Z"/>
  <path class="cls-12" d="m10.94,22.38c.11.23.23.46.34.7-.43.04-.84.07-1.35.12-.06-.14-.15-.38-.25-.61.11-.04.22-.08.35-.12.02-.11.05-.28.07-.4.2.28.37.52.6.83.11-.23.18-.37.24-.5,0,0,0,0,0,0Z"/>
  <path class="cls-14" d="m9.86,19.9c.24-.04.47-.11.71-.12.4-.02.46.23.37.55-.2.21-.39.42-.59.62-.03-.02-.06-.04-.08-.06.05-.3.1-.61.15-.91-.04-.02-.08-.03-.12-.05-.09.15-.19.3-.28.45-.05,0-.11,0-.16.01v-.5Z"/>
  <path class="cls-14" d="m18.36,21.73c.15-.37.29-.73.44-1.1.04,0,.08.02.13.03-.03.21-.06.41-.08.6.16.05.45.15.74.25-.08.14-.17.29-.25.43h0c-.06-.06-.12-.18-.19-.19-.26-.03-.52-.02-.78-.03Z"/>
  <path class="cls-6" d="m21.37,23.56c.27-.27.11-.37-.16-.47-.17-.06-.31-.2-.47-.3.12-.16.23-.33.41-.57.18.28.3.48.44.67.13.19.27.37.47.66h-.69,0Z"/>
  <path class="cls-14" d="m11.48,21.09c-.42-.05-.3.35-.44.53-.61.11-.77.02-.89-.61.2.14.33.23.39.27.25-.18.49-.35.72-.51.07.07.15.14.22.21,0,.04,0,.08,0,.11Z"/>
  <path class="cls-15" d="m23.64,19.36c.18-.21.35-.43.53-.64.07.19.14.38.22.6.07-.09.14-.18.22-.28,0,0,0,0,0,0,0,.23.12.47-.21.62-.14.06-.2.3-.34.54-.03-.26-.05-.45-.08-.68-.08-.04-.21-.1-.34-.16Z"/>
  <path class="cls-23" d="m17.78,23.33c-.06-.21-.11-.41-.16-.6.12-.04.36-.1.56-.22.16-.1.26-.29.41-.47.25.53-.86.68-.15,1.22-.14.12-.27.23-.46.39.02-.18.03-.29.05-.48-.12.08-.2.14-.24.17Z"/>
  <path class="cls-7" d="m9.43,21.19c.09.08.17.16.23.21-.18.19-.37.4-.58.62-.5-.36-.07-.86-.19-1.27,0,0,0,0,0,0,.18.14.36.28.54.43h0Z"/>
  <path class="cls-9" d="m15.67,23.34v.62c-.19.05-.36.09-.54.14-.05-.13-.11-.27-.16-.4l-.08.04c.01.08.02.17.03.25-.22,0-.44.02-.66.02.22-.19.44-.38.66-.57.27.08.54.22.76-.1h0Z"/>
  <path class="cls-7" d="m24.28,18.72c0-.25,0-.5-.01-.75,0-.11-.07-.22-.11-.33.12-.11.23-.22.38-.36.08.08.16.18.25.27-.19.17.23.72-.19.61-.15.25-.24.41-.32.56Z"/>
  <path class="cls-9" d="m19.32,21.94c.05.15.09.3.13.42.2-.12.4-.25.62-.38.05.67.04.67-.84.64-.03-.21-.07-.42-.11-.66.04,0,.12,0,.2-.01,0,0,0,0,0,0Z"/>
  <path class="cls-7" d="m24.6,14.85c-.06-.25-.12-.49-.17-.74l.1-.03c.28.36.55.73.83,1.09-.11.03-.22.07-.33.1-.11-.11-.22-.21-.33-.32-.03-.04-.07-.07-.1-.11Z"/>
  <path class="cls-11" d="m23.52,15.5c-.07-.04-.14-.08-.21-.12.07-.11.14-.21.21-.32h0q.23.25.41-.07t.35-.14c-.07.21-.14.43-.22.64-.14,0-.29,0-.43,0-.04,0-.07,0-.11,0Z"/>
  <path class="cls-27" d="m22.55,19.36c.12-.18.25-.35.39-.55.13.25.03.75.57.57,0,.06,0,.12,0,.18-.18.05-.36.09-.54.14-.14-.11-.29-.22-.43-.33Z"/>
  <path class="cls-5" d="m14.26,24.01c.22,0,.44-.02.66-.03.03.04.07.08.1.12,0,.07,0,.13,0,.2-.36.04-.72.08-1.08.12,0-.14,0-.28,0-.43.1,0,.2.01.3.02Z"/>
  <path class="cls-14" d="m17.39,21.84c.32-.04.65-.07.97-.11-.26.17-.52.33-.82.53-.06-.16-.1-.29-.15-.41Z"/>
  <path class="cls-24" d="m22.98,19.7c.18-.05.36-.09.54-.14,0,.11,0,.22,0,.33-.25.04-.5.07-.75.11,0,0,0,0,0,0,0-.04,0-.08,0-.11.07-.07.14-.13.21-.2Z"/>
  <path class="cls-10" d="m17.11,24.29c.17-.12.33-.23.5-.35,0,.53-.05.56-.5.35Z"/>
  <path class="cls-8" d="m24.7,14.96c.11.11.22.21.33.32-.22.06-.44.12-.66.18,0-.04-.01-.08-.02-.12.12-.02.23-.05.35-.07v-.3Z"/>
  <path class="cls-6" d="m16.32,25.04c.2.05.41.1.61.15-.02.06-.03.12-.05.18-.2-.05-.41-.11-.61-.16.01-.06.03-.11.04-.17Z"/>
  <path class="cls-12" d="m10.94,22.15c.04.08.07.16.11.23-.04,0-.07,0-.11-.01,0,0,0,0,0,0-.17-.09-.33-.19-.5-.28.02-.04.03-.08.05-.12.15.06.3.12.45.18Z"/>
  <path class="cls-10" d="m17.2,24.97c.19-.03.37-.07.56-.1,0,.05.01.11.02.16-.2.01-.4.02-.6.04,0-.03.02-.06.03-.09Z"/>
  <path class="cls-15" d="m24.7,18.83c.05-.16.11-.33.16-.49.06.04.13.07.19.11-.11.13-.23.26-.34.39h0Z"/>
  <path class="cls-12" d="m11.35,22.48c.05-.11.11-.22.23-.46,0,.39,0,.64,0,.9-.08-.14-.15-.29-.23-.43Z"/>
  <path class="cls-13" d="m11.04,21.73h.31s0,.09,0,.14c-.14.03-.28.05-.42.08.04-.07.07-.14.11-.22Z"/>
  <path class="cls-8" d="m23.63,15.5c.14,0,.29,0,.43,0-.07.11-.14.22-.22.32-.07-.07-.14-.15-.21-.22,0-.03,0-.06,0-.1Z"/>
  <path class="cls-14" d="m10.93,20.33c.11.11.21.21.32.32-.11-.11-.21-.21-.32-.32Z"/>
  <path class="cls-1" d="m15.02,24.1s-.07-.08-.1-.12c-.01-.08-.02-.17-.03-.25l.08-.04c.05.13.11.27.16.4-.04,0-.07,0-.11,0Z"/>
  <path class="cls-27" d="m22.13,19.26c.14.03.28.07.42.1-.14.04-.29.07-.43.11,0,0,0,0,0,0,0-.07,0-.14,0-.21Z"/>
  <path class="cls-6" d="m21.37,23.56s-.05.1-.08.15l-.07-.06s.1-.05.15-.08c0,0,0,0,0,0Z"/>
  <path class="cls-6" d="m15.53,25.32s-.06.02-.09.04c0-.03-.03-.06-.02-.08.02-.02.05-.03.08-.05,0,.03.02.06.02.09Z"/>
  <path class="cls-6" d="m11.58,23.56s-.1-.03-.14-.04c0-.01.02-.03.03-.04.04.03.08.05.12.08,0,0,0,0,0,0Z"/>
  <path class="cls-10" d="m18.78,23.45s-.05-.08-.07-.12c0,0,.02-.02.04-.03.02.05.03.09.05.14,0,0-.01.01-.01.01Z"/>
  <path class="cls-23" d="m22.77,19.9s0,.08,0,.11c-.04-.01-.09-.02-.13-.04.04-.03.09-.05.13-.08Z"/>
  <path class="cls-15" d="m24.71,18.83c-.04.07-.07.14-.11.21,0,0,0,0,0,0,.04-.07.07-.14.11-.22,0,0,0,0,0,0Z"/>
  <path class="cls-12" d="m9.1,20.66s.03.02.05.02c-.02,0-.03-.02-.05-.02,0,0,0,0,0,0Z"/>
  <path class="cls-7" d="m9.43,21.19s.02-.03.03-.04c0,.02-.01.03-.02.05,0,0,0,0,0,0Z"/>
  <path class="cls-12" d="m11.27,22.48s-.09,0-.14,0c0,0,.02-.01.02-.01s.05,0,.05,0h.05s.01,0,.01,0Z"/>
  <path class="cls-12" d="m8.46,19.8l-.04-.05s.03.03.05.04c0,0,0,0,0,0Z"/>
  <path class="cls-26" d="m13.95,18.6c-.05.08-.11.17-.16.25-.15-.15-.31-.29-.47-.44.05-.03.11-.06.16-.09-.05-.05-.1-.1-.16-.14-.06-.2-.13-.41-.21-.65-.44.36-1.3.38-1.7.11-.1-.06-.23-.07-.35-.11,0-.03,0-.06,0-.1-.05-.06-.09-.13-.14-.19-.14.1-.27.22-.41.31-.6.41-.9.33-.96-.33.29.12.57.44.86,0,.07-.07.14-.15.21-.22.63-.24.62-.23.92.25.08.12.28.26.41.24.34-.05.66-.18,1.12-.31-.64-.12-.73-.5-.63-.95-.21-.08-.37-.14-.53-.19.1-.05.2-.11.31-.16-.02-.03-.03-.05-.05-.08-.09.01-.17.02-.26.04,0-.04,0-.08,0-.12.14-.22.29-.38.23-.74-.05-.29.32-.65.51-.98.03-.05.06-.11.14-.26-.29.03-.48.05-.66.07-.07-.11-.15-.22-.22-.34.04-.04.07-.08.11-.12.13,0,.26.02.4.02-.02-.12-.05-.24-.07-.35h0c.11,0,.24.03.32-.01.3-.17.32,0,.32.23,0,.01-.02.03-.02.04,0-.01.01-.03.02-.04.17-.13.34-.27.52-.41-.34-.27-.15-.46.02-.67.1-.12.16-.26.24-.4.05-.1.1-.2.14-.3.47.18.37.4.02.66.19.05.33.13.41.09.25-.11.47-.27.7-.4.19-.11.39-.2.58-.3.2-.11.4-.23.6-.34.08.21.17.41.21.54.42.15.82.29,1.36.47-.14-.22-.22-.34-.29-.45.32-.03.36.18.41.43.02.11.18.2.38.4.07.45.49.85.94,1.22.08.42.15.85.24,1.27.01.06.13.09.2.13-.23.31-.11.51.21.64l-.02.03c-.15.16-.43.32-.44.48,0,.85-.47,1.53-1.07,1.89-.39.23-.83.75-1.49.55-.28-.09-.64.11-.97.18-.08,0-.15,0-.23,0-.26-.16-.33-.03-.31.22-.43-.18-.86-.36-1.29-.54.02-.09.03-.18.05-.26l-.11-.02c-.02.09-.04.18-.05.27Z"/>
  <path class="cls-5" d="m16.21,11.17c-.2.11-.4.23-.6.34-.19.1-.39.2-.58.3-.24.13-.46.29-.7.4-.08.04-.22-.05-.41-.09.35-.26.45-.48-.02-.66-.05.1-.09.2-.14.3-.07.14-.14.28-.24.4-.17.21-.36.4-.02.67-.18.14-.35.27-.52.41h0c0-.22-.02-.4-.32-.23-.08.05-.22.01-.32.02.03-.16.06-.32.1-.53-.25.01-.42.02-.6.03-.01-.03-.03-.07-.04-.1.14-.09.27-.17.42-.27-.09-.06-.16-.11-.22-.15.39-.29.97-.39.99-1.02-.04,0-.07,0-.11,0-.14-.03-.29-.07-.43-.1-.1-.02-.19-.05-.29-.07,0,.03-.01.07-.02.1.09.07.18.13.26.2-.02.03-.03.07-.05.1h-1.08c-.04-.11-.07-.22-.11-.33-.41-.4.19-.46.17-.85.18.26.27.39.38.55.15-.08.27-.15.4-.23.07-.07.15-.14.22-.2.21-.17.43-.34.64-.5,0,0,.07.08.15.12.02,0,.14-.1.13-.13-.03-.09-.09-.17-.15-.24-.07-.08-.15-.15-.23-.23.07-.04.14-.07.21-.11.08.06.15.12.27.22.02-.14.04-.24.06-.33,0,0,0,0,0,0,.19.09.39.17.57.28.18.11.34.25.54.41-.09-.42-.16-.71-.22-1.01,0,0,.05,0,.05,0,.04-.07.09-.15.13-.22,0,0,0,0,0,0,.61-.22.63.35.86.65,0,0,0,0,0,0,.14.29.28.58.43.86-.07.22-.14.43-.21.65-.07.14-.15.28-.23.44h.88c0,.06,0,.11,0,.17Zm-1.29-1.81s-.05.08-.08.12c0,0,.03.02.04.03.01-.05.03-.1.04-.15.02-.02.03-.03.05-.05-.02.01-.03.03-.05.04Zm-1.83,1.4s.06.1.08.15c.02-.02.04-.04.07-.07-.05-.03-.1-.06-.15-.09-.12-.16-.24-.31-.39-.5-.32.61.16.44.38.51Zm1.93.11s.04.03.06.04c-.01-.02-.03-.04-.04-.06-.06-.04-.12-.12-.19-.13-.12-.01-.24.02-.36.03-.12-.15-.24-.3-.48-.6-.11.42-.2.72-.29,1.08.34-.16.55-.26.77-.36.05.14.09.28.16.47.17-.21.27-.33.37-.46Zm-1.64-.21s.08,0,.11.01c.06-.09.13-.19.22-.33-.14-.02-.23-.03-.32-.03,0,.12-.01.23-.02.35Zm.07,1.11s.05-.02.07-.04c-.03-.06-.06-.12-.1-.19-.02.01-.05.02-.07.04.03.06.06.12.09.19Z"/>
  <path class="cls-6" d="m12.98,10.98c-.03.63-.61.73-.99,1.02.06.04.13.09.22.15-.15.1-.29.18-.42.27.01.03.03.07.04.1.18,0,.36-.02.6-.03-.04.2-.07.36-.1.53,0,0,0,0,0,0-.11.11-.22.22-.33.32-.04.04-.07.08-.11.12-.04.03-.07.06-.11.1h0c-.07-.25-.15-.5-.22-.75h0c-.05-.07-.09-.15-.14-.23-.04.02-.07.05-.11.07.03-.11.07-.21.12-.36h-.59c.09-.33.63-.23.51-.66-.04-.08-.07-.16-.11-.23,0-.06,0-.13,0-.19.36,0,.72,0,1.08,0,.02-.03.03-.07.05-.1-.09-.07-.18-.13-.26-.2,0-.03.01-.07.02-.1.1.02.19.05.29.07.14.03.29.07.43.1.04,0,.07,0,.11,0Z"/>
  <path class="cls-5" d="m11.9,16.03c.16.06.32.12.53.19-.1.44,0,.83.63.95-.46.14-.78.26-1.12.31-.12.02-.33-.12-.41-.24-.31-.48-.29-.49-.92-.25-.03,0-.07,0-.1,0-.04-.14-.07-.28-.11-.42-.04-.07-.08-.14-.12-.21.11,0,.22,0,.33-.01.04-.03.08-.06.12-.1.02,0,.05,0,.07,0,.15.05.39.19.44.14.15-.15.23-.38.33-.58.07.04.14.08.21.12.04,0,.08,0,.12.01,0,.03,0,.06,0,.09Zm-.4.62v-.05h-.17v.05h.17Z"/>
  <path class="cls-27" d="m12.11,10.34c-.13.07-.26.14-.4.23-.11-.16-.2-.29-.38-.55.02.39-.59.46-.17.85-.29.14-.68-.08-.94.23-.01.01-.23-.15-.35-.23h0c.22-.08.44-.15.68-.22-.23-.31-.6-.56-.12-.87.24-.16.52-.25.65-.31.3.24.57.44.83.65,0,0,0,0,0,0,.07.07.14.15.21.22Z"/>
  <path class="cls-15" d="m10.29,14.31c.05-.14.09-.27.14-.41.12.08.26.15.36.26.16.15.29.33.46.53-.18.33-.29.34-.57-.04-.1.15-.2.28-.29.42-.01.02-.03.03-.04.05.02-.01.04-.03.05-.04.19.18.39.35.58.53-.15.1-.31.21-.47.32h-.01c-.07.01-.14.01-.21.01-.03,0-.07,0-.1,0-.04-.22.12-.57-.33-.55,0,0,0,0,0,0-.04-.04-.07-.08-.11-.11-.12-.79-.08-.86.54-.97.04.09.08.18.12.26.03-.03.07-.07.1-.1-.08-.05-.15-.11-.23-.16Z"/>
  <path class="cls-14" d="m8.46,14.52c0,.12.02.24.03.4.12-.05.27-.14.29-.12.2.24.38.5.57.76.06.08.12.16.18.24,0,0,.02.02.02.02,0,.18,0,.35-.01.53h0c-.07-.07-.15-.14-.22-.21-.04-.07-.08-.14-.12-.22-.03-.06-.07-.11-.1-.17,0,.06.01.11.02.17-.08,0-.15,0-.23,0-.24.1-.49.23-.65-.12-.03-.03-.07-.06-.1-.1.07-.4.14-.8.2-1.2.04,0,.08,0,.12,0Z"/>
  <path class="cls-23" d="m13.2,7.54c.11-.1.22-.2.43-.39.18.37.35.71.53,1.07-.07.09-.2.24-.33.39-.03,0-.06,0-.09,0-.08-.08-.17-.16-.25-.25.02-.05.05-.1.07-.14-.26.06-.52.12-.88.21.13-.2.21-.33.29-.46.09.01.17.03.26.04-.01-.16-.02-.31-.04-.47Z"/>
  <path class="cls-27" d="m12.87,9.15c.08.08.16.15.23.23.06.07.12.15.15.24,0,.03-.12.14-.13.13-.08-.05-.15-.12-.15-.12-.21.17-.43.33-.64.5-.14,0-.29-.01-.43-.02,0,0,0,0,0,0,.13-.24.25-.48.38-.72.03.02.06.03.09.05.07-.22.15-.44.22-.66.09.12.18.24.28.37Z"/>
  <path class="cls-15" d="m9.86,13.02c.03-.13.11-.27.08-.38-.07-.26-.19-.51-.33-.85.19.04.32.09.35.06.23-.3.39-.3.58.04.18.33.17.58-.21.72-.21.08-.04.59-.47.4h0Z"/>
  <path class="cls-2" d="m12.01,7.21c.25.03.55-.26.75.11-.12.07-.23.16-.35.22-.15.07-.3.12-.45.18.02.05.03.09.05.14l.48-.09c0,.06,0,.12.01.17h-1.16c.27-.3.47-.52.67-.74Z"/>
  <path class="cls-14" d="m9.85,15.39c.45-.03.29.32.33.55.03.14.06.28.1.43,0,0,0,0,0,0,.04.07.08.14.12.21-.21,0-.43.01-.64-.02-.08-.01-.15-.13-.22-.2,0,0,0,0,0,0,.07-.18.14-.36.21-.54.01,0,.03,0,.04-.02,0,0,0-.02,0-.03l-.04.04c-.07,0-.13,0-.2,0,0,0-.02-.02-.02-.02.11-.14.22-.28.33-.42Z"/>
  <path class="cls-16" d="m6.52,16.68c.06-.1.13-.2.17-.28-.14-.09-.26-.18-.39-.26.1-.06.2-.11.29-.18.09-.07.16-.17.25-.25h0c.14.07.28.14.43.21h0c-.04.14-.07.29-.11.43,0,.07,0,.14,0,.21-.04,0-.07,0-.11,0-.18.04-.36.07-.54.11Z"/>
  <path class="cls-9" d="m13.74,8.61s.06,0,.09,0c.16,0,.32,0,.47,0,.06.29.13.59.22,1.01-.2-.16-.36-.3-.54-.41-.18-.11-.38-.18-.57-.28.11-.11.22-.22.33-.33Z"/>
  <path class="cls-1" d="m10.11,9.36c-.31.18.06.89-.6.77-.07-.01-.17-.21-.14-.27.14-.29.23-.69.75-.5Z"/>
  <path class="cls-5" d="m6.52,16.68c.18-.04.36-.07.54-.11.11.11.22.22.33.32.06-.04.13-.07.19-.11-.05.52-.14.58-.59.38-.11-.05-.24-.03-.36-.05-.04-.15-.08-.29-.12-.44Z"/>
  <path class="cls-16" d="m7.81,14.63c.04.13.09.26.13.38-.67.26-.71.24-.77-.28,0,0,0,0,0,0,.11-.07.21-.14.32-.22.11.04.22.07.33.11Z"/>
  <path class="cls-16" d="m7.06,13.45c.04.43.07.86.11,1.29,0,0,0,0,0,0-.09.05-.18.11-.32.19.09-.53-.3-1.06.22-1.48h0Z"/>
  <path class="cls-7" d="m11.74,8.87c-.37.2-.7.28-.99-.29.38.03.69.05,1,.08v.21Z"/>
  <path class="cls-9" d="m8.98,17.52c-.07-.17-.13-.35-.2-.52.14-.07.29-.14.46-.23.05.06.13.15.2.24-.01.03-.01.07-.01.1,0,.04,0,.07,0,.11-.12.12.24.48-.21.43-.07-.03-.14-.07-.2-.1l-.02-.02Z"/>
  <path class="cls-9" d="m11.57,15.81c-.11.2-.18.42-.33.58-.05.05-.29-.09-.44-.14.09.02.18.03.26.04.26-.07-.19-.86.51-.48Z"/>
  <path class="cls-27" d="m7.81,14.63c-.11-.04-.22-.07-.33-.11.12-.23.24-.47.41-.79.12.26.19.41.26.57,0,0-.02.03-.02.03-.11.1-.22.2-.33.3Z"/>
  <path class="cls-7" d="m8.14,13.01c.02.06.07.13.05.16-.08.11-.18.21-.36.4.05,0-.04,0-.12-.02h0c.04-.29.07-.59.11-.88.11.11.22.22.32.33Z"/>
  <path class="cls-12" d="m8.68,11.2c.03.19.06.37.09.56-.04.03-.07.07-.11.1-.14-.14-.27-.28-.41-.41.14-.08.28-.17.42-.25h0Z"/>
  <path class="cls-12" d="m7.81,12.47c-.05-.09-.1-.18-.15-.27.13-.04.3-.15.38-.1.13.08.21.25.31.39-.18,0-.36,0-.54-.01Z"/>
  <path class="cls-20" d="m7.81,12.47c.18,0,.36,0,.54.01-.07.18-.14.35-.21.53-.11-.11-.22-.22-.32-.33,0-.07,0-.14,0-.21Z"/>
  <path class="cls-14" d="m11.79,13.56c-.05.1-.11.2-.2.37-.13-.4-.22-.7-.32-1.01.01,0,.16-.06.3-.11,0,0,0,0,0,0,.07.25.15.5.22.76,0,0,0,0,0,0Z"/>
  <path class="cls-11" d="m9.86,13.02c-.07.19-.14.38-.23.56,0,.01-.21-.07-.44-.16.31-.18.49-.29.68-.4,0,0,0,0,0,0Z"/>
  <path class="cls-8" d="m13.2,7.54c.01.16.02.31.04.47-.09-.01-.17-.03-.26-.04,0-.14,0-.29,0-.43.07,0,.14,0,.21,0h0Z"/>
  <path class="cls-16" d="m7.28,15.92c.03-.18.05-.37.08-.55.06,0,.12,0,.18,0-.01.15-.03.29-.04.44-.07.04-.14.07-.22.11h0Z"/>
  <path class="cls-7" d="m8.35,14.2c.02-.19.05-.38.07-.57.06,0,.11.02.17.03-.04.22-.08.44-.12.66-.04-.04-.08-.07-.11-.11Z"/>
  <path class="cls-19" d="m7.28,15.92c.07-.04.14-.07.22-.11-.03.22.12.56-.32.54.04-.14.07-.29.11-.43Z"/>
  <path class="cls-19" d="m8.89,15.93c.08,0,.15,0,.23,0,0,0,.04,0,.04,0h.04c.04.07.08.15.12.22-.28.22-.37.04-.43-.21Z"/>
  <path class="cls-12" d="m7.39,16.89c-.11-.11-.22-.22-.33-.32.04,0,.07,0,.11,0,.07.11.15.22.22.32Z"/>
  <path class="cls-27" d="m12.22,9.38c-.16-.01-.31-.03-.47-.04,0-.05.01-.09.02-.14.16.03.31.05.47.08v.1Z"/>
  <path class="cls-12" d="m8.67,11.19c-.02-.12-.04-.25-.06-.37.04-.01.07-.03.11-.04.06.14.12.28.17.42,0,0,0,0,0,0-.07,0-.14,0-.21,0,0,0,0,0,0,0Z"/>
  <path class="cls-1" d="m8.62,9.72c.11,0,.21.01.32.02,0,.04,0,.08,0,.13-.11,0-.21,0-.32-.01,0-.04,0-.09,0-.13Z"/>
  <path class="cls-9" d="m13.41,8.93c-.02.09-.03.19-.06.33-.12-.1-.2-.16-.27-.22.11-.04.22-.07.33-.11Z"/>
  <path class="cls-12" d="m9,11.41c-.04-.07-.07-.14-.11-.22,0,0,0,0,0,0,.1-.04.19-.08.41-.16-.15.18-.22.28-.3.37h0Z"/>
  <path class="cls-17" d="m10.28,16.36c-.03-.14-.06-.28-.1-.43.03,0,.07,0,.1,0,0,.14,0,.28,0,.43Z"/>
  <path class="cls-16" d="m7.06,13.45l.06-.28s.09.03.14.05c-.07.08-.13.15-.2.23h0Z"/>
  <path class="cls-19" d="m8.35,14.2s.08.07.11.11c0,.07,0,.14,0,.21-.04,0-.08,0-.12,0-.07-.06-.13-.13-.2-.19,0,0,.02-.03.02-.03.06-.03.12-.07.19-.1Z"/>
  <path class="cls-7" d="m8.68,13.23l.16-.3s.05.03.08.04l-.14.32s-.07-.04-.1-.06Z"/>
  <path class="cls-12" d="m7.91,16.45c0-.11.02-.22.03-.33.05.02.1.03.15.05-.06.1-.11.2-.17.29,0,0-.01-.01-.01-.01Z"/>
  <path class="cls-7" d="m9.05,12.61c-.05-.05-.08-.08-.12-.11.03-.03.06-.09.09-.08.04,0,.08.05.11.09,0,.01-.04.06-.08.1Z"/>
  <path class="cls-18" d="m11.26,11.39c.04.08.07.16.11.23-.04-.08-.07-.16-.11-.23Z"/>
  <path class="cls-19" d="m10.51,16.99s.07,0,.1,0c-.07.07-.14.15-.21.22.04-.08.07-.15.11-.23Z"/>
  <path class="cls-15" d="m10.51,15.92c.06.03.11.06.16.09,0,0-.02.05-.03.08-.05-.05-.09-.11-.14-.16,0,0,.01-.01.01-.01Z"/>
  <path class="cls-27" d="m9.96,11.3c-.04.05-.08.11-.13.16-.02-.01-.04-.03-.07-.04.03-.06.06-.12.09-.18.03.02.07.04.1.06Z"/>
  <path class="cls-19" d="m8.7,16.53s-.08-.02-.08-.04c0-.02.02-.06.03-.09.03.01.08.02.08.04,0,.02-.02.06-.03.09Z"/>
  <path class="cls-14" d="m10.72,13.45c-.06-.04-.11-.09-.17-.13.01-.01.02-.02.04-.04.05.05.09.11.14.16h0Z"/>
  <path class="cls-11" d="m9.24,13.91v-.17s.03,0,.05,0v.17s-.03,0-.05,0Z"/>
  <path class="cls-14" d="m10.72,13.45c.08,0,.16.01.24.02,0,.03-.01.05-.02.08-.08-.03-.15-.06-.23-.09,0,0,0,0,0,0Z"/>
  <path class="cls-1" d="m9.03,10.49c0-.07-.01-.12-.02-.16.03.02.07.03.08.06,0,.02-.03.05-.06.1Z"/>
  <path class="cls-14" d="m11.9,15.94s-.08,0-.12-.01c.04-.07.08-.15.12-.22,0,.04,0,.08,0,.12,0,.04,0,.08,0,.12Z"/>
  <path class="cls-2" d="m13.19,7.53c-.07,0-.14,0-.21,0,0-.04,0-.08,0-.12.07.04.14.08.21.12Z"/>
  <path class="cls-16" d="m6.67,15.12s-.02.02-.03.02c0-.02-.02-.04-.03-.05.01,0,.03,0,.04,0,0,0,.01.02.02.03Z"/>
  <path class="cls-1" d="m9.32,10.25s.03,0,.04.02c0,0,0,.02,0,.03-.02,0-.04-.02-.06-.03.01,0,.02-.02.03-.02Z"/>
  <path class="cls-12" d="m9,11.41s.05.08.08.12c-.01,0-.03.02-.04.03-.01-.05-.03-.1-.04-.15,0,0,0,0,0,0Z"/>
  <path class="cls-14" d="m11.26,13.23s-.08.06-.12.09c0-.01-.02-.03-.03-.04.05-.01.1-.03.15-.04h0Z"/>
  <path class="cls-7" d="m7.71,13.56s-.08.06-.12.08c0-.01-.02-.03-.03-.04.05-.01.1-.03.15-.04,0,0,0,0,0,0Z"/>
  <path class="cls-19" d="m10.73,16.26s-.08.06-.12.1c.04-.03.08-.06.12-.1Z"/>
  <path class="cls-19" d="m8.14,15.72s.07.06.1.1c-.03-.03-.07-.06-.1-.1Z"/>
  <path class="cls-16" d="m6.84,15.71s-.03-.03-.04-.05c.02.01.03.03.05.04,0,0,0,0,0,0Z"/>
  <path class="cls-14" d="m11.26,13.23s.03-.03.05-.04c0,0,0,.02,0,.03-.01,0-.03.01-.04.01,0,0,0,0,0,0Z"/>
  <path class="cls-20" d="m8.88,9.25s.08-.07.12-.11c-.04.04-.08.07-.12.11Z"/>
  <path class="cls-20" d="m8.99,9.15s0-.07,0-.1c.01.03.03.05.03.08,0,0-.03.02-.04.03Z"/>
  <path class="cls-22" d="m9.43,17.11s0-.07.01-.1c0,.03.02.05.03.08,0,0-.03.02-.04.03Z"/>
  <path class="cls-14" d="m9.75,15.28s.07.08.11.11c-.04-.04-.07-.08-.11-.11Z"/>
  <path class="cls-27" d="m9.86,10.87s-.03-.03-.04-.05c.02.02.03.03.05.05,0,0,0,0,0,0Z"/>
  <path class="cls-2" d="m12.87,7.32s.07,0,.11,0c-.04,0-.07,0-.11,0Z"/>
  <path class="cls-5" d="m19.22,13.77c-.45-.37-.87-.77-.94-1.22-.2-.2-.36-.29-.38-.4-.04-.25-.08-.46-.41-.43,0,0,0,0,0,0,.06-.21.13-.43.22-.73h.55c-.16-.12-.26-.2-.34-.27.14-.2.26-.36.44-.6-.29.14-.47.22-.65.3-.07-.03-.14-.06-.21-.1,0-.14,0-.29,0-.43.03-.07.07-.13.1-.2.57.09,1.13.17,1.71.26.01-.18.02-.28.03-.39.18.11.35.22.53.33-.11.13.07.46-.29.43-.02,0-.1.19-.06.24.22.3.43.79.7.84.55.09.36.44.51.77-.25-.12-.41-.2-.55-.27-.03.32-.06.61-.09.9,0,0,0,0,0,0-.04.04-.07.08-.11.12-.03.03-.07.07-.1.1-.16-.04-.31-.07-.44-.1v.53s0,.07,0,.1c-.04.07-.09.15-.13.22-.03,0-.05,0-.08,0Zm-.43-3.23c-.06-.08-.12-.15-.17-.23-.03.03-.05.06-.08.09.08.05.17.09.25.14-.06.25-.17.53.3.62.08-.28.17-.57.26-.87-.22.1-.39.18-.55.25Zm-.21,2.05c.12,0,.24.01.44.02-.39-.34-.22-.47.24-.5-.17-.22-.29-.37-.48-.62-.09.45-.15.77-.21,1.08-.01.02-.03.04-.04.06.02-.01.04-.03.05-.04Zm1.06.33c.14-.22.27-.35.31-.51.02-.07-.14-.19-.21-.29-.11.13-.23.25-.31.39-.02.05.08.16.21.41Z"/>
  <path class="cls-27" d="m20.08,12.81c.03-.29.06-.58.09-.9.14.07.3.15.55.27-.15-.34.03-.68-.51-.77-.27-.05-.48-.54-.7-.84-.03-.04.05-.24.06-.24.36.03.19-.29.29-.43.08-.07.15-.15.23-.22.35.03.31-.21.31-.43.07-.11.14-.21.21-.32h0c.15.15.31.3.48.46-.05.04-.12.1-.22.18.22.11.42.22.62.32.25.11.52.2.77.31.6.27.6.27.77,1.27-.16.05-.33.1-.49.15,0-.12.01-.24.02-.35-.03,0-.06-.01-.09-.02-.05.09-.1.17-.14.26-.04,0-.08,0-.11,0-.03,0-.07,0-.1,0v-.11c.1-.15.21-.3.35-.49-.39.09-.71.17-1.03.24,0-.04,0-.09,0-.13.16-.19.31-.37.56-.66-.43.1-.73.17-.99.24.04.38.08.72.12,1.08-.13-.09-.22-.16-.39-.27.13.34.22.6.31.86h0c-.19.02-.39.04-.58.07,0,.04,0,.08,0,.12l.46.03c-.23.26-.47.48-.86.32Zm.95-2.6h-.8c.13.22.21.34.3.48.15-.15.26-.25.5-.48Zm-.47-.26s-.03-.07-.05-.08c-.02-.01-.05.01-.08.02.01.03.02.07.04.08.02.01.06-.01.09-.02Z"/>
  <path class="cls-23" d="m22.22,11.52s.08,0,.11,0c.04.04.08.07.11.11.19.27.45.53.53.83.06.23.04.41.32.45.04.08.08.15.12.23.11.25.21.5.32.75.04.04.07.07.11.11,0,.07-.02.2-.02.2-.64,0-.87.71-1.46.81-.13-.07-.29-.16-.45-.25-.14-.11-.29-.22-.43-.33,0-.07,0-.14,0-.2.14.14.28.27.43.41.06-.03.12-.05.17-.08-.06-.04-.11-.09-.17-.13-.07-.17-.14-.34-.26-.62.26.16.43.27.68.43-.04-.17-.07-.26-.09-.34-.04-.07-.08-.14-.12-.21-.12-.01-.24-.02-.21-.02-.13-.19-.24-.28-.25-.38-.01-.07.09-.16.15-.25.07,0,.14,0,.21,0,.04,0,.09,0,.13,0,.21-.07.42-.15.63-.22.02.01.03.03.05.04-.01-.02-.03-.03-.04-.05-.04-.04-.07-.08-.11-.11-.05-.1-.09-.19-.14-.29-.06.1-.12.19-.19.29-.18.07-.36.15-.54.22-.19-.03-.39-.06-.59-.09-.05-.1-.1-.22-.16-.34v-.22s0,0,0,0c.11,0,.21,0,.32,0,.02.02.04.03.05.05-.01-.02-.03-.04-.04-.06.12-.14.23-.3.37-.42.14-.13.32-.22.48-.33Zm1.08,2.36s0,.03.01.04c0,0,.02,0,.03,0-.02-.02-.03-.03-.05-.05,0-.07-.01-.14,0-.21.09-.46-.29-.51-.55-.51-.36,0-.29.31-.22.56.03.11.05.22.07.33.02-.06.04-.11.06-.17.21,0,.42,0,.63,0Z"/>
  <path class="cls-23" d="m17.5,9.9c0,.14,0,.29,0,.43-.12-.01-.31.01-.34-.04-.16-.3-.28-.61-.42-.92,0,0,0,0,0,0,.12-.15.25-.31.42-.52h-1.17s-.03-.07-.09-.15c-.05-.06-.13-.11-.21-.18.11-.13.18-.23.26-.32.07-.09.15-.18.25-.32.3.45,1.12.35,1.13,1.19.53.09,1.09.18,1.66.28l.02.02c.11.07.22.14.32.2,0,.1-.01.21-.03.39-.58-.09-1.15-.18-1.71-.26-.13-.03-.26-.05-.38-.08-.02.04-.03.08-.05.11.11.06.22.11.33.17Zm-.14-.53s-.03-.07-.05-.08c-.02,0-.06.02-.09.03.02.03.04.07.07.1.02-.02.05-.04.07-.06Z"/>
  <path class="cls-4" d="m15.99,6.67c.28-.22.54-.26.81.04.12.13.32.18.49.27.11.22.22.43.32.65-.55.36-1.31.18-1.68-.45-.05.28-.09.49-.15.79-.12-.17-.22-.3-.25-.34-.25-.08-.43-.14-.62-.2.01,0,.03,0,.04-.02,0,0,0-.02,0-.03-.02.01-.03.03-.05.04-.09.01-.17.03-.36.05.16-.23.29-.4.41-.58.19.15.37.29.54.42.06-.28.09-.5.16-.71,0-.01.22.04.33.06.02.48.31.55.73.42-.08-.13-.2-.22-.32-.28-.13-.06-.27-.1-.41-.14Z"/>
  <path class="cls-5" d="m21.48,14.42c.14.11.29.22.43.33-.04.09-.08.18-.13.29.07.04.16.09.25.14,0,.07,0,.13,0,.2l-.12.23s-.04.09-.07.14l.07-.04c.07,0,.14,0,.21,0,.11.04.22.08.32.12-.11.1-.21.21-.32.31-.31-.24-.33-.03-.33.21-.04,0-.07,0-.11,0-.04-.11-.07-.22-.11-.32,0,0,0,0,0,0-.04-.14-.07-.29-.11-.43,0-.39,0-.79,0-1.18Z"/>
  <path class="cls-7" d="m17.61,7.64c-.11-.22-.22-.43-.32-.65.14.07.29.14.47.23v-.54c.24.22.39.35.55.5h.48c-.19.14-.4.3-.61.46.06.06.13.13.19.19-.25-.06-.5-.13-.75-.19Z"/>
  <path class="cls-23" d="m15.77,9.9c-.14-.29-.28-.58-.43-.86.22.14.43.29.65.43h0c.18.26.33.34.47-.04.03-.09.09-.5.29-.07,0,0,0,0,0,0-.02.32-.03.64-.05.98-.03-.01-.16-.07-.29-.12-.02-.06-.04-.12-.06-.18-.05.06-.1.11-.15.17-.03,0-.06.02-.09.02-.1-.05-.21-.09-.31-.14,0-.07-.01-.13-.02-.2Z"/>
  <path class="cls-21" d="m22.45,15.83c-.11-.04-.22-.08-.32-.12-.03-.11-.07-.22-.1-.33,0-.07,0-.13,0-.2.2-.01.41.02.58-.04.29-.11.44-.05.49.25,0,.45-.42.3-.65.44Z"/>
  <path class="cls-23" d="m15.35,9.04c-.23-.29-.25-.87-.86-.65.08-.11.15-.28.25-.31.1-.03.24.1.36.16.12.07.23.14.39.24-.04.15-.09.35-.13.55Z"/>
  <path class="cls-21" d="m23.42,13.13c-.04-.08-.08-.15-.12-.23.24-.2.48-.4.72-.6-.02.16-.04.33-.07.5h0c-.09.03-.18.06-.27.08.16.35-.12.21-.26.24Z"/>
  <path class="cls-6" d="m19.44,8.17c.11-.04.21-.09.4-.16-.02.22-.03.4-.05.59-.19-.03-.34-.05-.52-.08.05-.11.1-.22.15-.34h.01Z"/>
  <path class="cls-14" d="m17.93,8.61c-.25-.09-.49-.19-.74-.28l.05-.12c.22.06.44.11.72.18,0,.03-.02.12-.03.22h0Z"/>
  <path class="cls-6" d="m18.58,8.18c.18-.07.35-.14.53-.22h0c-.1.3-.16.67-.55.22h0Z"/>
  <path class="cls-14" d="m20.4,9.25c0,.22.03.46-.31.43.03-.14.06-.29.1-.43.04,0,.08,0,.12,0,.03,0,.07,0,.1,0Z"/>
  <path class="cls-7" d="m24.99,14c-.12-.06-.24-.13-.35-.19.02-.05.05-.1.05-.1.13.04.25.08.37.12-.02.06-.05.11-.07.17Z"/>
  <path class="cls-11" d="m23.52,15.06l-.12-.37c.06,0,.12-.01.18-.02-.02.13-.04.26-.06.39h0Z"/>
  <path class="cls-5" d="m22.45,11.62s-.08-.07-.11-.11c.05-.09.1-.17.14-.26.03,0,.06.01.09.02,0,.12-.01.24-.02.35-.03,0-.07,0-.1,0Z"/>
  <path class="cls-6" d="m19,7.54c-.03.11-.06.23-.09.34l-.14-.06c.08-.1.16-.19.24-.29h0Z"/>
  <path class="cls-14" d="m17.93,8.61l.19.3s-.1.04-.15.06c-.02-.12-.03-.24-.05-.36,0,0,0,0,0,0Z"/>
  <path class="cls-6" d="m18.57,8.18c-.09-.02-.19-.04-.28-.06.02-.05.03-.09.05-.14.08.06.16.13.24.19,0,0,0,0,0,0Z"/>
  <path class="cls-14" d="m17.98,8.04c-.09.05-.17.09-.26.14-.02-.03-.04-.05-.06-.08.08-.06.17-.13.25-.19.02.05.04.09.07.14Z"/>
  <path class="cls-23" d="m18.99,9.35c.08-.07.15-.14.23-.2h0c-.07.07-.14.15-.21.22,0,0-.02-.02-.02-.02Z"/>
  <path class="cls-23" d="m15.99,9.47c.04-.06.09-.11.13-.17.01.01.02.02.04.04-.06.04-.11.09-.17.13,0,0,0,0,0,0Z"/>
  <path class="cls-23" d="m19.22,9.15c.03-.06.06-.13.09-.19.02.02.05.03.07.05-.05.05-.1.09-.16.14h0Z"/>
  <path class="cls-7" d="m25.27,14.38h-.17s0-.03,0-.04h.17s0,.03,0,.04Z"/>
  <path class="cls-6" d="m19.43,8.19s-.05-.08-.08-.12c0,0,.03-.02.04-.03.02.05.04.09.05.14,0,0-.01.01-.01.01Z"/>
  <path class="cls-9" d="m14.49,8.39c-.04.07-.09.15-.13.22.04-.07.09-.15.13-.22Z"/>
  <path class="cls-27" d="m20.62,8.93s.08-.05.12-.08c0,.01.02.03.03.04-.05.01-.1.03-.14.04,0,0,0,0,0,0Z"/>
  <path class="cls-27" d="m20.3,9.25s-.08,0-.12,0c.04,0,.08,0,.12,0Z"/>
  <path class="cls-21" d="m23.85,13.99s-.07-.07-.11-.11c.04.04.07.07.11.11Z"/>
  <path class="cls-6" d="m19.11,7.96s.03-.03.05-.04c-.01.02-.03.03-.04.05,0,0,0,0,0,0Z"/>
  <path class="cls-6" d="m19,7.53s-.03-.02-.05-.02c.02,0,.03.02.05.03,0,0,0,0,0,0Z"/>
  <path class="cls-2" d="m12.11,6.99s.07-.07.11-.1c-.04.03-.07.07-.11.1Z"/>
  <path class="cls-21" d="m23.95,12.8s.03.03.05.05c0,0-.02,0-.03,0,0-.01-.01-.02-.02-.04,0,0,0,0,0,0Z"/>
  <path class="cls-5" d="m13.1,24.62c-.18-.12-.39-.21-.55-.36-.23-.22-.63-.37-.48-.88.19.06.34.11.52.16.07-.16.13-.32.14-.34-.17-.27-.28-.44-.39-.61-.04-.04-.07-.08-.11-.12,0-.03,0-.06,0-.09-.07-.07-.14-.14-.2-.21-.06-.04-.12-.09-.18-.13.09-.03.18-.06.27-.09.11-.07.22-.14.33-.21.1,0,.21,0,.31,0,0,.1-.01.19-.03.45.18-.19.26-.27.4-.42-.19-.02-.28-.03-.36-.04-.11,0-.22,0-.33,0-.04-.11-.07-.21-.11-.32.22,0,.43,0,.65-.01.17.33.31.35.65.12h0c.11.14.22.29.32.43,0,0,0,0,0,0-.05.17-.11.35-.2.65-.09-.26-.13-.36-.13-.37-.33.12-.63.22-.83.29.12.24.39.54.32.68-.28.56.18.73.43,1.02.03,0,.06,0,.09,0,0,.1,0,.2,0,.31l-.52.1Z"/>
  <path class="cls-15" d="m13.52,24.21c-.24-.29-.7-.46-.43-1.02.07-.14-.2-.44-.32-.68.2-.07.5-.18.83-.29,0,.01.04.12.13.37.1-.31.15-.48.2-.65.22.08.44.16.73.27-.04.1-.11.28-.18.44.17.02.37,0,.52.08.05.03,0,.26,0,.4-.04.07-.07.14-.11.21-.28,0-.58-.06-.69.33-.01.05-.18.07-.28.1-.15-.41.03-.61.6-.72-.47-.25-.81-.42-1.2-.63-.07.25-.11.39-.15.52.26.03.47.05.67.07v.14h-.55c.09.36-.1.94.62.62,0,.07,0,.15,0,.22,0,.14,0,.28,0,.43-.11.03-.22.07-.33.1,0-.1,0-.2,0-.31-.02-.05-.04-.09-.06-.14-.01.04-.02.09-.04.13Z"/>
  <path class="cls-9" d="m11.9,20.43c.1-.01.19-.03.44-.06-.24-.21-.39-.34-.54-.47.14-.18.28-.36.42-.54-.03-.03-.07-.07-.1-.1.21-.31.44-.53.75-.11-.06.08-.12.15-.2.24.16.03.29.05.42.08-.07.21-.15.43-.22.64,0-.04,0-.07,0-.11-.05-.13-.1-.26-.15-.38-.05.03-.1.05-.14.08.06.1.12.2.18.31.04.04.07.07.11.11.06.1.11.21.17.31-.24.18-.47.37-.71.56-.02-.09-.04-.19-.06-.28-.05.05-.1.1-.15.16-.11,0-.22,0-.32.01.04-.15.07-.29.11-.44Z"/>
  <path class="cls-26" d="m19.3,13.77c.04-.07.09-.15.13-.22.19.03.38.07.6.1.26.61.26.6.84.21.03-.02.18.14.28.22-.35.29-.36.6-.08.85-.08.25-.15.45-.22.66-.04.04-.08.07-.12.11-.07.07-.14.14-.21.21-.05-.06-.09-.11-.14-.17l-.08.17s-.08,0-.11,0c-.03-.04-.07-.07-.1-.11,0,0,0,0,0,0,0-.14,0-.29,0-.43.07-.04.14-.07.21-.11-.03-.1-.06-.21-.09-.31.12.05.24.1.37.15.11-.48-.11-.79-.5-.68.07-.59-.4-.55-.76-.66Z"/>
  <path class="cls-23" d="m21.48,15.6c.04.14.07.29.11.43-.03,0-.07,0-.1,0-.04,0-.07,0-.11,0-.11.25-.22.5-.33.75h0c-.16.16-.32.33-.48.49.04.04.08.09.13.13.19-.05.52.42.56-.19h.02c.15.06.3.14.45.22-.18.12-.32.22-.46.31-.17.02-.41-.09-.37.26.01.09-.13.2-.28.29.57-.73-.58-.93-.4-1.56.11.13.19.23.22.26.13-.35.27-.71.41-1.07.1-.07.21-.15.31-.22.11-.04.21-.07.32-.11Z"/>
  <path class="cls-5" d="m14.91,23.34c.04-.07.07-.14.11-.21.22-.1.43-.2.65-.31.21-.26.31-.23.56.16-.19.12-.38.24-.56.37-.21.32-.49.18-.76.1,0-.03,0-.07,0-.1Z"/>
  <path class="cls-4" d="m13.62,21.52c-.34.24-.48.21-.65-.12.12-.05.23-.09.3-.12v-.63c.11,0,.22,0,.33.01-.12.32-.03.51.34.53h0c-.11.11-.22.21-.32.32Z"/>
  <path class="cls-14" d="m17.71,19.47c.22-.03.44-.06.65-.11.26-.05.51-.12.86-.09-.11.11-.21.22-.4.41-.01.05-.05.25-.1.44-.05-.01-.1-.02-.15-.03.1-.45-.12-.61-.86-.63h0Z"/>
  <path class="cls-14" d="m17.71,19.47c.01.24.03.47.05.88-.21-.25-.32-.39-.5-.6-.15.16-.28.31-.42.46,0,0,0,0,0,0-.02-.15-.05-.3-.08-.54.31-.07.62-.14.94-.21,0,0,0,0,0,0Z"/>
  <path class="cls-9" d="m14.92,21.08c.18-.05.43-.05.19-.34-.05-.06.01-.19.02-.29.09.03.17.06.37.12-.13-.18-.19-.26-.24-.34.13.02.26.05.39.07-.06.16-.12.31-.2.52.02.01.1.07.2.15-.5.2-.62.22-.74.11h0Z"/>
  <path class="cls-19" d="m12.22,19.36c-.14.18-.28.36-.42.54-.09.08-.19.16-.32.28-.06-.61.13-.86.64-.92.03.03.07.07.1.1Z"/>
  <path class="cls-9" d="m14.27,20.55c.08-.19.16-.38.24-.57,0,0,.03-.01.05,0,.01,0,.03.02.04.03,0,.03,0,.07,0,.1-.01.23-.03.45-.04.68,0,.11.02.21.03.32-.22.03-.43.05-.65.08,0,0,0,0,0,0,.04-.14.07-.29.11-.43h0c.07-.07.15-.14.22-.22h0Z"/>
  <path class="cls-27" d="m10.82,19.26c-.02.09-.04.18-.04.19-.19-.12-.38-.23-.55-.37-.05-.04-.04-.16-.05-.24h0c.36-.08.74-.24.89.29,0,.03-.09.09-.15.14-.03-.09-.07-.18-.1-.27-.03.01-.07.02-.1.04.03.08.07.15.1.23Z"/>
  <path class="cls-5" d="m13.95,21.19c.22-.03.43-.06.65-.08.03.14.07.28.1.41-.36,0-.71,0-1.07,0h0c.11-.11.22-.22.32-.33Z"/>
  <path class="cls-21" d="m21.15,18.61c.01.18.03.37.04.55-.03,0-.07.02-.1.02-.07-.13-.13-.26-.2-.39-.2.05-.4.09-.59.14-.03-.77.46-.32.76-.32.03,0,.06,0,.1,0Z"/>
  <path class="cls-14" d="m19.64,20.2c.21.12.48.28.75.44-.65.15-.8-.01-.75-.44Z"/>
  <path class="cls-15" d="m13.63,21.52c.36,0,.71,0,1.07,0,.01.09.03.17.02.15-.27.1-.52.19-.77.28-.11-.14-.22-.29-.32-.43Z"/>
  <path class="cls-23" d="m21.15,18.61s-.06,0-.1,0c.07-.29.14-.58.21-.86.12.1.23.2.36.31-.18.21-.33.38-.47.56Z"/>
  <path class="cls-19" d="m11.9,20.43c-.04.15-.07.29-.11.44-.04-.14-.07-.28-.12-.47-.09,0-.23-.02-.37-.03.02-.06.03-.12.05-.18.18.08.36.16.54.24Z"/>
  <path class="cls-12" d="m13.62,19.26c.02-.06.04-.12.12-.32.04.34.07.53.09.73-.1.04-.21.09-.31.13-.04-.11-.08-.21-.12-.32.07-.07.14-.14.21-.21Z"/>
  <path class="cls-13" d="m13.62,19.26c-.07.07-.14.14-.21.21-.1,0-.21,0-.31,0-.13-.02-.26-.05-.42-.08.07-.09.14-.17.2-.24.07,0,.15,0,.22,0,.07.04.14.07.22.11.1,0,.21,0,.31,0Z"/>
  <path class="cls-5" d="m14.06,20.76c-.04.14-.07.29-.11.43-.36-.02-.46-.21-.34-.53.08,0,.15,0,.23,0,.07.03.14.07.21.1Z"/>
  <path class="cls-23" d="m12.33,21.41c.04.11.07.21.11.32h0c-.11.08-.22.15-.33.22-.14-.14-.28-.29-.43-.43.04-.03.08-.07.11-.1.17,0,.35,0,.52,0Z"/>
  <path class="cls-14" d="m18.56,20.62c-.15-.06-.3-.12-.45-.19.07-.12.12-.22.19-.35.11.15.21.29.31.43-.02.03-.03.07-.05.1Z"/>
  <path class="cls-14" d="m15.35,19.37c-.01.09,0,.19-.04.25-.06.07-.16.12-.25.15-.02,0-.08-.09-.12-.13.07-.06.14-.12.22-.18.06-.04.13-.06.19-.09,0,0,0,0,0,0Z"/>
  <path class="cls-26" d="m15.77,19.05s.02.07.03.1c.05.12.1.23.14.35,0,0-.09.04-.13.06-.05-.14-.09-.27-.14-.41,0-.04,0-.08,0-.12.03,0,.06,0,.1.01Z"/>
  <path class="cls-19" d="m7.59,17.65c-.1-.01-.2-.02-.3-.03.14-.06.28-.12.41-.17-.04.07-.08.14-.12.21Z"/>
  <path class="cls-23" d="m19.95,17.61c-.06-.1-.11-.19-.17-.29.06-.03.11-.05.17-.08.05.1.09.2.14.3-.05.02-.09.05-.14.07Z"/>
  <path class="cls-14" d="m17.15,20.56c.1-.05.2-.1.3-.15,0,0,.08.11.08.12-.09.07-.19.13-.28.2-.03-.06-.07-.11-.1-.17Z"/>
  <path class="cls-13" d="m16.04,19.76c.07.08.15.15.14.17-.03.06-.1.11-.15.16-.04-.05-.11-.1-.11-.15,0-.05.07-.1.13-.19Z"/>
  <path class="cls-13" d="m13.52,19.79c.1-.04.21-.09.31-.13-.07.11-.14.23-.21.34-.03-.07-.07-.14-.1-.21Z"/>
  <path class="cls-5" d="m21.16,15.71c-.1.07-.21.15-.31.22-.04-.07-.08-.15-.12-.22.04-.04.08-.07.12-.11.1.03.21.07.31.1Z"/>
  <path class="cls-14" d="m15.67,19.03s0,.08,0,.12c-.07,0-.14,0-.21,0-.04,0-.08,0-.11,0h0c-.01-.25.05-.37.31-.22,0,.03,0,.07.01.1Z"/>
  <path class="cls-19" d="m12.12,20.86c.05-.05.1-.1.15-.16.02.09.04.19.06.28-.03.03-.06.06-.09.09-.04,0-.08,0-.11,0,0-.07,0-.14,0-.22Z"/>
  <path class="cls-9" d="m13.3,19.26c-.07-.04-.14-.07-.22-.11.06-.05.12-.11.19-.16.01.09.02.18.03.27Z"/>
  <path class="cls-12" d="m14.24,19.36c-.07-.09-.14-.18-.2-.27.02-.02.03-.05.05-.07l.28.2s-.09.09-.13.14Z"/>
  <path class="cls-13" d="m15.25,20.23c.06.08.11.16.24.34-.2-.07-.28-.1-.37-.12,0-.07,0-.15,0-.22.04,0,.08,0,.12,0Z"/>
  <path class="cls-26" d="m20.09,16.13c-.08-.1-.16-.2-.24-.3,0,0,.02-.03.02-.03.07,0,.14,0,.21,0,0,0,0,0,0,0,0,.1,0,.21,0,.31Z"/>
  <path class="cls-11" d="m11.9,18.5c.08-.12.16-.23.24-.35.04.03.07.07.11.1-.12.08-.23.16-.35.24,0,0,0,0,0,0Z"/>
  <path class="cls-13" d="m14.28,19.88c-.04-.05-.09-.08-.09-.12,0-.04.03-.09.05-.13.04.04.1.06.12.11.01.02-.04.08-.07.14Z"/>
  <path class="cls-9" d="m14.06,20.76c-.07-.03-.14-.07-.21-.1,0,0,0,0,0,0,.03-.03.06-.07.09-.1.11,0,.23,0,.34,0,0,0,0,0,0,0-.07.07-.15.15-.22.22,0,0,0,0,0,0Z"/>
  <path class="cls-9" d="m9.01,17.65l-.35.03s0-.07,0-.11c.11-.01.22-.03.33-.04,0,0,.02.02.02.02,0,.03,0,.07,0,.1Z"/>
  <path class="cls-4" d="m12.82,21.1l.2-.17s.05.05.07.07c-.06.07-.12.14-.18.21l-.09-.11Z"/>
  <path class="cls-13" d="m13.32,18.17c.05.05.1.1.16.14-.05.03-.11.06-.16.09,0-.08,0-.16,0-.23Z"/>
  <path class="cls-11" d="m13.95,18.6c.02-.09.04-.18.05-.27l.11.02c-.02.09-.03.18-.05.26-.04,0-.07-.01-.11-.02Z"/>
  <path class="cls-13" d="m12.12,22.59c-.03.09-.06.18-.08.27-.04-.05-.09-.11-.13-.16.03-.03.07-.07.1-.1.04,0,.08,0,.11,0Z"/>
  <path class="cls-19" d="m10.82,19.26c-.03-.08-.07-.15-.1-.23.03-.01.07-.02.1-.04.03.09.07.18.1.27-.03,0-.07,0-.1,0Z"/>
  <path class="cls-19" d="m9.92,18.28c-.09.08-.14.13-.19.18.01-.05.01-.1.04-.14,0-.02.06-.01.15-.03Z"/>
  <path class="cls-17" d="m20.3,15.92l.08-.17c.05.06.09.11.14.17-.07,0-.14,0-.22,0Z"/>
  <path class="cls-19" d="m10.18,18.83c-.06-.04-.11-.09-.17-.13.01-.01.02-.02.04-.04.04.06.09.11.13.17,0,0,0,0,0,0Z"/>
  <path class="cls-21" d="m20.07,18.7c-.03.07-.05.13-.08.2l-.08-.03c.03-.07.05-.13.08-.2.02,0,.05.02.07.03Z"/>
  <path class="cls-13" d="m15.67,19.03s0-.07-.01-.1c.08,0,.15,0,.23,0-.04.04-.08.08-.12.12-.03,0-.06,0-.1-.01Z"/>
  <path class="cls-19" d="m11.48,21.09s0-.08,0-.11c.08,0,.16.02.23.02,0,.02,0,.04,0,.06-.08,0-.15.02-.23.03Z"/>
  <path class="cls-19" d="m11.8,21.41s-.08.07-.11.1c-.04-.02-.08-.04-.12-.06.08-.01.16-.02.24-.04Z"/>
  <path class="cls-19" d="m9.51,18.64h.16v.05h-.16v-.05Z"/>
  <path class="cls-26" d="m15.35,19.15s.08,0,.11,0c-.04.07-.08.14-.11.21,0,0,0,0,0,0,0-.07,0-.14,0-.21Z"/>
  <path class="cls-21" d="m16.85,20.22c-.07.07-.14.14-.21.22,0,0,0,0,0,0,.07-.07.14-.14.22-.21,0,0,0,0,0,0Z"/>
  <path class="cls-23" d="m12.02,22.17c.07.07.14.14.2.21-.07-.07-.14-.14-.2-.21Z"/>
  <path class="cls-23" d="m12.12,22.59s-.08,0-.11,0c.07-.04.14-.08.22-.13.04.04.07.08.11.12,0,0,0,0,0,0-.04,0-.07,0-.11,0-.04,0-.07,0-.11,0Z"/>
  <path class="cls-17" d="m20.09,16.13c0-.1,0-.21,0-.31.03.04.07.07.1.11-.03.07-.06.14-.1.21Z"/>
  <path class="cls-14" d="m19.03,20.26s0,.03,0,.03c-.01,0-.03,0-.04.01,0-.02,0-.04,0-.06.01,0,.03,0,.04.01Z"/>
  <path class="cls-19" d="m9.01,17.65s0-.07,0-.1c.07.03.14.07.2.1-.07,0-.13,0-.2,0Z"/>
  <path class="cls-14" d="m14.84,19.33s-.03.01-.04.02c0-.02,0-.04-.01-.06.02,0,.03,0,.04.01,0,0,0,.02,0,.04Z"/>
  <path class="cls-19" d="m8.46,18.29s0-.07,0-.11c.04.01.08.03.13.04-.04.02-.09.05-.13.07Z"/>
  <path class="cls-12" d="m14.03,19.35v.04s-.04-.03-.05-.05c0,0,.02-.02.03-.03,0,.01.02.02.03.04Z"/>
  <path class="cls-13" d="m16.1,21.94s.07.07.11.11c-.04-.04-.07-.07-.11-.11Z"/>
  <path class="cls-14" d="m17.24,20.08s.01.03.02.04c-.02,0-.04,0-.06.01,0-.02,0-.03,0-.04,0,0,.02,0,.04,0Z"/>
  <path class="cls-13" d="m12.93,18.79s.02.03.02.04c0,.01-.02.03-.03.04,0-.03,0-.05,0-.08Z"/>
  <path class="cls-23" d="m12.12,21.08s.08,0,.11,0c-.05.03-.1.06-.15.09.01-.03.02-.06.04-.09Z"/>
  <path class="cls-21" d="m16.68,20.8s-.02-.02-.02-.04c.02,0,.04-.02.05-.03,0,.01,0,.03,0,.04,0,.01-.02.01-.03.02Z"/>
  <path class="cls-11" d="m12.05,19s-.03.01-.04.02c0-.02,0-.04-.01-.07.02,0,.03,0,.05.01,0,0,0,.03,0,.04Z"/>
  <path class="cls-19" d="m11.05,17.43s0,.07,0,.1c0-.03,0-.07,0-.1Z"/>
  <path class="cls-13" d="m13.93,20.55s-.06.07-.09.1c.03-.03.06-.07.09-.1Z"/>
  <path class="cls-21" d="m16.64,20.44s-.03.03-.04.05c0,0,0-.02,0-.03.01,0,.03-.01.04-.02h0Z"/>
  <path class="cls-9" d="m14.91,21.09s-.03-.03-.05-.05c.02.01.04.03.05.04,0,0,0,0,0,0Z"/>
  <polygon class="cls-13" points="15.13 20.22 15.09 20.2 15.11 20.18 15.13 20.22"/>
  <path class="cls-11" d="m11.9,18.5s0,.03-.02.04c0,0-.02,0-.03,0,.02-.02.03-.03.05-.05,0,0,0,0,0,0Z"/>
  <path class="cls-13" d="m14.6,20.11s0-.07,0-.1c.01.02.03.05.04.07,0,0-.02.02-.04.03Z"/>
  <path class="cls-19" d="m11.26,22.47h-.05s-.05,0-.05,0c.04,0,.07,0,.11,0Z"/>
  <polygon class="cls-19" points="9.86 18.29 9.88 18.24 9.9 18.26 9.86 18.29"/>
  <path class="cls-23" d="m24.06,17.1c-.07.04-.15.07-.22.11-.03.15-.06.29-.09.44.03.23.06.46.09.72-.11.08-.26.19-.46.32-.31-.2-.62-.41-.94-.61h0c0-.08-.02-.17-.04-.36-.15.17-.25.28-.35.4-.49-.43.21-.67.19-1.04.3.41.6.83.89,1.24.04-.02.07-.04.11-.06-.02-.13-.04-.26-.05-.39h0c.04-.1.07-.19.11-.28-.07-.01-.15-.03-.22-.04h0c-.26-.06-.32-.2-.06-.29.24-.08.27-.16.16-.36-.07,0-.14,0-.21,0,.08-.19.17-.38.22-.51.29.24.56.48.84.72,0,0,0,0,0,0Z"/>
  <path class="cls-19" d="m23.74,17.65c.03-.15.06-.29.09-.44.16.19.21.35-.09.44Z"/>
  <path class="cls-23" d="m21.05,16.78c.08.14.15.28.23.42,0,0-.01.01-.01.01-.07-.15-.14-.29-.21-.44h0Z"/>
  <path class="cls-24" d="m22.05,18.29s.09.06.13.09c-.04.04-.08.08-.13.11-.02,0-.09-.05-.09-.09,0-.03.05-.07.09-.11Z"/>
  <path class="cls-23" d="m21.8,16.35c0-.24.02-.45.33-.21-.11.07-.22.14-.33.21Z"/>
  <path class="cls-24" d="m22.13,19.26c0,.07,0,.14,0,.21-.07,0-.14,0-.22-.01.07-.07.15-.13.22-.2Z"/>
  <path class="cls-19" d="m23.21,15.85s.04.04.06.07c-.03.02-.07.04-.1.06-.01-.03-.04-.06-.03-.08,0-.02.05-.03.07-.05Z"/>
  <path class="cls-24" d="m22.49,16.92s.02-.08.04-.08c.02,0,.06.02.09.03-.01.03-.02.08-.04.09-.02,0-.06-.02-.09-.03Z"/>
  <path class="cls-23" d="m21.58,16.03c.04.11.07.22.11.32-.04-.11-.07-.22-.11-.32Z"/>
  <path class="cls-23" d="m23.2,17.86c-.03-.11-.07-.22-.1-.33,0,0,0,0,0,0,.04.11.07.21.11.32h0Z"/>
  <path class="cls-24" d="m22.99,16.89c.07,0,.14,0,.21,0-.07,0-.14,0-.21,0Z"/>
  <path class="cls-19" d="m22.25,16.49s.01.04.01.04c-.01,0-.03.01-.05.02,0-.01-.01-.04-.01-.04.01,0,.03-.01.05-.02Z"/>
  <path class="cls-19" d="m23.63,15.5s0,.06,0,.1c-.04-.03-.07-.06-.11-.09.04,0,.07,0,.11,0Z"/>
  <path class="cls-24" d="m21.37,16.03s.07,0,.11,0c-.04,0-.07,0-.11,0Z"/>
  <path class="cls-23" d="m22.44,18.07s0,.03-.02.04c0,0-.02,0-.03,0,.02-.01.03-.03.05-.04,0,0,0,0,0,0Z"/>
  <path class="cls-19" d="m8.24,19.15s-.03-.04-.04-.05c.02.01.03.03.05.04,0,0-.01.01-.01.01Z"/>
  <path class="cls-13" d="m12.23,22.59s.07,0,.11,0c-.04,0-.07,0-.11,0Z"/>
  <path class="cls-5" d="m14.91,23.34s0,.07,0,.1c-.22.19-.44.38-.66.57-.1,0-.2-.01-.3-.02,0-.07,0-.15,0-.22h0c.1-.03.26-.05.28-.1.1-.39.41-.32.69-.33Z"/>
  <path class="cls-5" d="m16.1,10.24s.06-.01.09-.02c.07,0,.14,0,.21.01.13.05.26.11.29.12.02-.34.03-.66.05-.98.13.31.25.63.42.92.03.06.22.03.34.04.07.03.14.06.21.1-.18.22-.37.43-.55.65-.01.02-.03.04-.04.06.02-.01.04-.03.06-.04.05.05.11.09.16.14-.34.29-.07.39.16.5,0,0,0,0,0,0,.07.11.15.23.29.45-.54-.19-.94-.33-1.36-.47-.05-.12-.13-.33-.21-.54,0-.06,0-.11,0-.17-.22-.15-.43-.3-.65-.44.07-.22.14-.43.21-.65,0,.07.01.13.02.2.05.1.11.2.16.3.05-.05.1-.11.15-.16Z"/>
  <path class="cls-5" d="m19.3,13.77c.35.1.83.07.76.66.39-.11.61.2.5.68-.12-.05-.25-.1-.37-.15-.12-.16-.25-.32-.37-.48-.03.01-.06.03-.09.04.04.18.07.36.11.54,0,.03,0,.07,0,.11-.06,0-.12,0-.18,0-.07-.04-.19-.07-.2-.13-.09-.42-.16-.84-.24-1.27.03,0,.05,0,.08,0Z"/>
  <path class="cls-5" d="m19.67,15.17c.06,0,.12,0,.18,0,.04.04.08.08.12.11.03.03.07.07.1.1,0,.14,0,.29,0,.43-.07,0-.14,0-.21,0-.32-.13-.44-.33-.21-.64Z"/>
  <path class="cls-13" d="m12.01,13.34c.11-.11.22-.22.33-.32.02.11.05.23.07.35-.14,0-.27-.02-.4-.02Z"/>
  <path class="cls-3" d="m11.9,15.94s0-.08,0-.12c.09-.01.17-.02.26-.04.02.03.03.05.05.08-.1.05-.2.11-.31.16,0-.03,0-.06,0-.09Z"/>
  <path class="cls-18" d="m12.98,13.23s-.01.03-.02.04c0-.01.02-.03.02-.04,0,0,0,0,0,0Z"/>
  <path class="cls-12" d="m14.48,10.87c-.22.1-.43.2-.77.36.1-.35.18-.66.29-1.08.24.3.36.45.48.6,0,.04,0,.08,0,.11Z"/>
  <path class="cls-26" d="m15.56,10.56c.22.15.43.3.65.44-.27,0-.55,0-.88,0,.09-.16.16-.3.23-.44Z"/>
  <path class="cls-26" d="m14.48,10.87s0-.08,0-.11c.12-.01.24-.04.36-.03.07,0,.13.08.19.13l-.02.02c-.1.13-.21.25-.37.46-.06-.19-.11-.33-.16-.47Z"/>
  <path class="cls-15" d="m13.08,10.76c-.23-.06-.71.11-.38-.51.14.19.27.34.39.5h0Z"/>
  <path class="cls-12" d="m13.38,10.66c0-.12.01-.23.02-.35.09,0,.18.02.32.03-.1.14-.16.23-.22.33-.04,0-.08,0-.11-.01Z"/>
  <path class="cls-3" d="m11.9,10.11c.14,0,.29.01.43.02-.07.07-.15.14-.22.2-.07-.07-.14-.15-.21-.22Z"/>
  <path class="cls-26" d="m13.45,11.77c-.03-.06-.06-.12-.09-.19.02-.01.05-.02.07-.04.03.06.06.12.1.19-.02.01-.05.02-.07.04Z"/>
  <path class="cls-15" d="m13.09,10.76s.1.06.15.09c-.02.02-.04.04-.07.07-.03-.05-.06-.1-.09-.15,0,0,0,0,0,0Z"/>
  <path class="cls-23" d="m14.92,9.37s-.03.1-.04.15c-.01,0-.04-.03-.04-.03.02-.04.05-.08.08-.12h0Z"/>
  <path class="cls-23" d="m14.91,9.36s.03-.03.05-.04c-.02.02-.03.03-.05.05,0,0,0,0,0,0Z"/>
  <path class="cls-15" d="m12.98,10.98s-.07,0-.11,0c.04,0,.07,0,.11,0Z"/>
  <path class="cls-26" d="m15.03,10.86s.03.04.04.06c-.02-.01-.04-.03-.06-.04,0,0,.02-.02.02-.02Z"/>
  <path class="cls-13" d="m11.8,13.56c-.07-.25-.15-.5-.22-.76.07.25.15.5.22.76Z"/>
  <path class="cls-5" d="m11.5,16.65h-.17v-.05h.17v.05Z"/>
  <path class="cls-3" d="m10.29,14.31l.23.16s-.07.07-.1.1c-.04-.09-.08-.18-.12-.26,0,0,0,0,0,0Z"/>
  <path class="cls-3" d="m10.4,15.07s-.04.03-.05.04c.01-.02.03-.03.04-.05,0,0,0,0,0,0Z"/>
  <path class="cls-19" d="m9.75,15.82c-.07.18-.14.36-.21.54,0-.18,0-.35.01-.53.07,0,.13,0,.2,0,0,0,0,0,0,0Z"/>
  <path class="cls-3" d="m9.2,15.92h-.04s-.04,0-.04,0c0-.06-.01-.11-.02-.17.03.06.07.11.1.17Z"/>
  <path class="cls-15" d="m9.75,15.82l.04-.04s0,.02,0,.03c0,0-.02.01-.04.02,0,0,0,0,0,0Z"/>
  <path class="cls-5" d="m21.15,14.09c-.1-.08-.25-.24-.28-.22-.58.39-.57.4-.84-.21-.22-.04-.41-.07-.6-.1,0-.03,0-.07,0-.1.15-.14.29-.29.44-.43.03-.03.07-.07.1-.1.04-.04.07-.08.11-.12,0,0,0,0,0,0,.38.15.63-.06.86-.32.04,0,.08,0,.11,0,.06.12.12.24.16.34.2.03.4.06.59.09,0,.04,0,.08,0,.12-.05.08-.16.17-.15.25.02.1.12.19.25.38-.03,0,.09,0,.21.02.04.07.08.14.12.21.02.09.05.17.09.34-.25-.16-.43-.27-.68-.43.12.28.19.45.26.62,0,.07,0,.14,0,.21-.14-.14-.28-.27-.43-.41,0-.08-.02-.16-.02-.24-.12.05-.21.08-.31.12Zm-.6-.49c.05,0,.1,0,.15,0,0-.14-.02-.28-.03-.42-.04,0-.08,0-.13,0v.41Z"/>
  <path class="cls-9" d="m17.5,11.73c-.23-.11-.5-.21-.16-.5-.05-.05-.11-.09-.16-.14l-.02-.02c.18-.22.37-.43.55-.65.18-.08.36-.17.65-.3-.17.24-.29.4-.44.6.09.07.19.15.34.27h-.55c-.09.31-.16.52-.22.73Z"/>
  <path class="cls-26" d="m18.57,12.58c.06-.31.12-.63.21-1.08.2.25.31.4.48.62-.46.03-.63.16-.24.5-.2-.01-.32-.02-.44-.02,0,0-.01-.01-.01-.01Z"/>
  <path class="cls-21" d="m18.79,10.55c.16-.07.33-.15.55-.25-.09.3-.17.59-.26.87-.47-.09-.35-.37-.3-.62h0Z"/>
  <path class="cls-11" d="m19.64,12.93c-.13-.25-.24-.37-.21-.41.08-.14.2-.26.31-.39.08.1.23.22.21.29-.04.16-.17.29-.31.51Z"/>
  <path class="cls-27" d="m19.87,13.02c-.15.14-.29.29-.44.43,0-.15,0-.31,0-.53.13.03.28.06.44.1Z"/>
  <path class="cls-25" d="m17.5,9.9c-.11-.06-.22-.11-.33-.17.02-.04.03-.08.05-.11.13.03.26.05.38.08-.03.07-.07.13-.1.2Z"/>
  <path class="cls-21" d="m18.79,10.55c-.08-.05-.17-.09-.25-.14.03-.03.05-.06.08-.09.06.08.12.15.17.23h0Z"/>
  <path class="cls-26" d="m18.58,12.6s-.04.03-.05.04c.01-.02.03-.04.04-.06,0,0,.01.01.01.01Z"/>
  <path class="cls-27" d="m20.08,12.8s-.07.08-.11.12c.04-.04.07-.08.11-.12Z"/>
  <path class="cls-5" d="m22.22,11.52c-.16.11-.34.2-.48.33-.14.12-.25.28-.37.42h0c-.11,0-.21,0-.32,0-.09-.26-.19-.52-.31-.86.16.11.26.18.39.27-.04-.36-.08-.7-.12-1.08.26-.06.56-.13.99-.24-.24.29-.4.47-.56.66,0,.04,0,.09,0,.13.32-.08.65-.15,1.03-.24-.14.2-.24.34-.35.49-.09.04-.18.08-.27.13.02.03.03.05.05.08.07-.03.15-.07.22-.1.03,0,.07,0,.1,0Z"/>
  <path class="cls-5" d="m21.03,10.21c-.24.23-.35.34-.5.48-.09-.14-.16-.26-.3-.48h.8Z"/>
  <path class="cls-5" d="m21.05,12.48s-.08,0-.11,0c-.15,0-.31-.02-.46-.03,0-.04,0-.08,0-.12.19-.02.39-.05.58-.07,0,.07,0,.14,0,.22Z"/>
  <path class="cls-23" d="m22.12,11.51c-.07.03-.15.07-.22.1-.02-.03-.03-.05-.05-.08.09-.04.18-.08.27-.13,0,.04,0,.07,0,.11Z"/>
  <path class="cls-20" d="m20.56,9.95s-.07.03-.09.02c-.02-.01-.03-.06-.04-.08.03,0,.06-.03.08-.02.02.02.03.05.05.08Z"/>
  <path class="cls-5" d="m21.15,14.09c.09-.04.19-.07.31-.12,0,.07.02.16.02.24,0,.07,0,.14,0,.21,0,.39,0,.79,0,1.18-.11.04-.21.07-.32.11-.1-.03-.21-.07-.31-.1.07-.2.14-.41.22-.66-.28-.26-.26-.56.08-.85Z"/>
  <path class="cls-5" d="m23.31,13.88h-.63c-.02.06-.04.11-.06.17-.02-.11-.04-.22-.07-.33-.08-.25-.14-.55.22-.56.26,0,.64.04.55.51-.01.07,0,.14,0,.21h0Z"/>
  <path class="cls-5" d="m21.8,13.03s0-.08,0-.12c.18-.07.36-.15.54-.22.11,0,.21,0,.32,0,.04.04.07.08.11.11h0c-.21.08-.42.15-.63.23-.04,0-.09,0-.13,0-.07,0-.14,0-.21,0Z"/>
  <path class="cls-27" d="m22.66,12.69c-.11,0-.21,0-.32,0,.06-.1.12-.19.19-.29.05.1.09.19.14.29Z"/>
  <path class="cls-8" d="m21.91,14.63c0-.07,0-.14,0-.21.06.04.11.09.17.13-.06.03-.12.05-.17.08Z"/>
  <path class="cls-8" d="m22.24,13.88c-.04-.07-.08-.14-.12-.21.04.07.08.14.12.21Z"/>
  <path class="cls-18" d="m21.37,12.26s.03.04.04.06c-.02-.02-.04-.03-.05-.05,0,0,0,0,0,0Z"/>
  <path class="cls-3" d="m23.31,13.88s.03.03.05.05c0,0-.02,0-.03,0,0-.01-.01-.03-.01-.04,0,0,0,0,0,0Z"/>
  <path class="cls-8" d="m22.77,12.8s.03.03.04.05c-.02-.01-.03-.03-.05-.04,0,0,0,0,0,0Z"/>
  <path class="cls-3" d="m22.01,13.02s.09,0,.13,0c-.04,0-.09,0-.13,0Z"/>
  <path class="cls-25" d="m17.35,9.37s-.05.04-.07.06c-.02-.03-.04-.07-.07-.1.03-.01.06-.04.09-.03.02,0,.03.05.05.08Z"/>
  <path class="cls-8" d="m15.99,6.67c.14.05.28.08.41.14.13.06.24.15.32.28-.42.13-.71.06-.73-.42h0Z"/>
  <path class="cls-8" d="m14.92,7.43s.03-.03.05-.04c0,0,0,.02,0,.03-.01,0-.02.01-.04.02,0,0,0,0,0,0Z"/>
  <path class="cls-8" d="m22.02,15.38c.03.11.07.22.1.33-.07,0-.14,0-.21,0,0-.03,0-.07,0-.1.04-.08.08-.15.12-.23Z"/>
  <path class="cls-23" d="m21.9,15.61s0,.07,0,.1c-.02.01-.05.03-.07.04.02-.05.04-.09.07-.14Z"/>
  <path class="cls-18" d="m16.1,10.24c-.05.05-.1.11-.15.16-.05-.1-.11-.2-.16-.3.1.05.21.09.31.14Z"/>
  <path class="cls-18" d="m16.4,10.23c-.07,0-.14,0-.21-.01.05-.06.1-.11.15-.17.02.06.04.12.06.18Z"/>
  <path class="cls-23" d="m12.77,21.72c.08.01.17.02.36.04-.14.15-.22.23-.4.42.02-.26.02-.35.03-.45,0,0,.01-.01.01-.01Z"/>
  <path class="cls-23" d="m12.44,21.72c.11,0,.22,0,.33,0,0,0-.01.01-.01.01-.1,0-.21,0-.31,0,0,0,0-.01,0-.01Z"/>
  <path class="cls-1" d="m13.52,24.21s.02-.09.04-.13c.02.05.04.09.06.14-.03,0-.06,0-.09,0Z"/>
  <path class="cls-5" d="m13.95,23.77c-.72.32-.52-.26-.62-.62h.54v-.14c-.2-.02-.4-.04-.66-.07.04-.13.08-.27.15-.52.39.2.73.38,1.2.63-.57.11-.76.31-.6.72,0,0,0,0,0,0Z"/>
  <path class="cls-13" d="m12.76,20.01c-.06-.1-.12-.2-.18-.31.05-.03.1-.05.14-.08.05.13.1.26.15.38-.04,0-.07,0-.11,0Z"/>
  <path class="cls-22" d="m12.76,20.01s.07,0,.11,0c0,.04,0,.07,0,.11,0,0,0,0,0,0-.04-.04-.07-.07-.11-.11Z"/>
  <path class="cls-22" d="m12.22,19.36s-.07-.07-.1-.1c.03.03.07.07.1.1Z"/>
  <path class="cls-5" d="m19.85,15.06c-.04-.18-.07-.36-.11-.54.03-.01.06-.03.09-.04.12.16.25.32.37.48.03.1.06.21.09.31-.07,0-.15,0-.22,0-.05-.11-.1-.22-.15-.33-.02.04-.05.09-.07.13Z"/>
  <path class="cls-25" d="m20.06,15.27c.07,0,.15,0,.22,0-.07.04-.14.07-.21.11-.03-.03-.07-.07-.1-.1.03,0,.06-.01.09-.01Z"/>
  <path class="cls-5" d="m21.05,16.78c.07.14.14.29.21.44-.04.62-.37.14-.56.19-.04-.04-.08-.09-.13-.13.16-.16.32-.33.48-.49Z"/>
  <path class="cls-22" d="m14.05,20.76c.07-.07.15-.15.22-.22-.07.07-.15.15-.22.22Z"/>
  <path class="cls-22" d="m23.2,17.85c-.04-.11-.07-.21-.11-.32.07.01.15.03.22.04l-.11.28Z"/>
  <path class="cls-9" d="m17.18,11.09s-.04.03-.06.04c.01-.02.03-.04.04-.06,0,0,.02.02.02.02Z"/>
  <path class="cls-26" d="m20.06,15.27s-.06,0-.09.01c-.04-.04-.08-.08-.12-.11,0-.04,0-.07,0-.11.02-.04.05-.09.07-.13.05.11.1.22.15.33Z"/>
  <path class="cls-5" d="m20.55,13.6v-.41s.08,0,.13,0c0,.14.02.28.03.42-.05,0-.1,0-.15,0Z"/>
</svg>